<?xml version="1.0" encoding="utf-8"?>
<!-- Generator: Adobe Illustrator 19.2.1, SVG Export Plug-In . SVG Version: 6.00 Build 0)  -->
<svg version="1.1" id="Layer_1" xmlns="http://www.w3.org/2000/svg" xmlns:xlink="http://www.w3.org/1999/xlink" x="0px" y="0px"
	 viewBox="0 0 512 512" style="enable-background:new 0 0 512 512;" xml:space="preserve">
<style type="text/css">
	.st0{fill:#7F7F7F;}
	.st1{fill:#BFBFBF;}
	.st2{fill:#FFFFFF;}
	.st3{fill:#FF0066;}
	.st4{fill:#00FF99;}
</style>
<path class="st0" d="M0,355.2v-324c0.1-5.7,4.7-10.3,10.4-10.4h491.2c5.7,0.1,10.3,4.7,10.4,10.4v324H0z"/>
<path class="st1" d="M512,355.2v41.6c-0.1,5.7-4.7,10.3-10.4,10.4H10.4c-5.7-0.1-10.3-4.7-10.4-10.4v-41.6H512z"/>
<rect x="146.4" y="480.8" class="st0" width="219.2" height="10.4"/>
<polygon class="st1" points="328.8,480.8 183.2,480.8 193.6,407.2 318.4,407.2 "/>
<rect x="20.8" y="41.6" width="470.4" height="292.8"/>
<polygon class="st0" points="318.4,407.2 193.6,407.2 187.8,448.3 320.3,420.4 "/>
<rect x="279.4" y="87.3" class="st2" width="78.1" height="11.1"/>
<g>
	<rect x="295" y="118.5" class="st3" width="62.4" height="11.1"/>
	<rect x="217" y="87.3" class="st3" width="31.2" height="11.1"/>
</g>
<rect x="232.6" y="118.5" class="st2" width="31.2" height="11.1"/>
<rect x="326.2" y="149.8" class="st4" width="31.2" height="11.1"/>
<g>
	<rect x="248.2" y="149.8" class="st3" width="31.2" height="11.1"/>
	<rect x="326.2" y="215.2" class="st3" width="31.2" height="11.1"/>
	<rect x="248.2" y="215.2" class="st3" width="31.2" height="11.1"/>
	<rect x="390.4" y="243.4" class="st3" width="31.2" height="11.1"/>
</g>
<g>
	<rect x="217" y="243.4" class="st4" width="46.8" height="11.1"/>
	<rect x="404.3" y="87.3" class="st4" width="31.2" height="11.1"/>
</g>
<g>
	<rect x="107.7" y="181" class="st2" width="62.4" height="11.1"/>
	<rect x="201.4" y="181" class="st2" width="62.4" height="11.1"/>
</g>
<g>
	<rect x="279.4" y="181" class="st3" width="62.4" height="11.1"/>
	<rect x="107.7" y="243.4" class="st3" width="62.4" height="11.1"/>
</g>
<g>
	<rect x="373.1" y="181" class="st4" width="62.4" height="11.1"/>
	<rect x="125.4" y="215.2" class="st4" width="58.7" height="11.1"/>
</g>
<rect x="107.7" y="274.6" class="st2" width="156.1" height="11.1"/>
<rect x="310.6" y="274.6" class="st2" width="62.4" height="11.1"/>
<rect x="107.7" y="149.8" class="st4" width="93.7" height="11.1"/>
<rect x="92.1" y="87.3" class="st3" width="93.7" height="11.1"/>
<rect x="76.5" y="118.5" class="st2" width="93.7" height="11.1"/>
</svg>
