<?xml version="1.0" encoding="utf-8"?>
<!-- Generator: Adobe Illustrator 19.2.1, SVG Export Plug-In . SVG Version: 6.00 Build 0)  -->
<svg version="1.1" id="Layer_1" xmlns="http://www.w3.org/2000/svg" xmlns:xlink="http://www.w3.org/1999/xlink" x="0px" y="0px"
	 viewBox="0 0 512 512" style="enable-background:new 0 0 512 512;" xml:space="preserve">
<style type="text/css">
	.st0{fill:#7F7F7F;}
	.st1{fill:#BFBFBF;}
	.st2{fill:#FFFFFF;}
	.st3{fill:#FF0066;}
	.st4{fill:#00FF99;}
</style>
<path class="st0" d="M0,355.2v-324c0-5.6,4.8-10.4,10.4-10.4h491.2c5.6,0,10.4,4.8,10.4,10.4v324H0z"/>
<path class="st1" d="M512,355.2v41.6c0,5.6-4.8,10.4-10.4,10.4H10.4c-5.6,0-10.4-4.8-10.4-10.4v-41.6H512z"/>
<rect x="146.4" y="480.8" class="st0" width="219.2" height="10.4"/>
<polygon class="st1" points="328.8,480.8 183.2,480.8 193.6,407.2 318.4,407.2 "/>
<polygon class="st0" points="318.4,407.2 193.6,407.2 187.8,448.3 320.3,420.4 "/>
<rect x="20.8" y="41.6" width="470.4" height="292.8"/>
<g>
	<path class="st2" d="M327.3,188H159v-25.6c0,0,31.7,1.9,63.8-32.6L327.3,188z"/>
	<path class="st2" d="M327.3,188H159v25.6c0,0,31.7-1.9,63.8,32.6L327.3,188z"/>
</g>
<polygon class="st3" points="125.9,228.4 125.9,147.6 159,150.8 159,225.2 "/>
<g>
	<ellipse cx="216.2" cy="188" rx="10.9" ry="11"/>
	<polygon points="316.9,200.8 261.3,200.8 251.6,191 206.5,191 206.5,185 254.1,185 263.8,194.8 316.9,194.8 	"/>
</g>
<g>
	<rect x="370.6" y="70.4" class="st2" width="6" height="243.1"/>
	<circle class="st2" cx="373.6" cy="70.4" r="12.5"/>
	<circle class="st2" cx="373.6" cy="305.6" r="12.5"/>
</g>
<path class="st4" d="M281,283.6v-6c49.4,0,89.6-40.2,89.6-89.6S330.4,98.4,281,98.4v-6c52.7,0,95.6,42.9,95.6,95.6
	C376.6,240.7,333.7,283.6,281,283.6z"/>
<g>
	<rect x="361.3" y="179.8" class="st4" width="24.4" height="24.4"/>
	<rect x="268.8" y="268.4" class="st4" width="24.4" height="24.4"/>
	<rect x="268.8" y="83.2" class="st4" width="24.4" height="24.4"/>
</g>
</svg>
