<?xml version="1.0" encoding="utf-8"?>
<!-- Generator: Adobe Illustrator 19.2.1, SVG Export Plug-In . SVG Version: 6.00 Build 0)  -->
<svg version="1.1" id="Слой_1" xmlns="http://www.w3.org/2000/svg" xmlns:xlink="http://www.w3.org/1999/xlink" x="0px" y="0px"
	 viewBox="0 0 1267 1267" style="enable-background:new 0 0 1267 1267;" xml:space="preserve">
<style type="text/css">
	.st0{display:none;}
	.st1{display:inline;fill:#3F3F3F;}
	.st2{clip-path:url(#SVGID_2_);}
	.st3{clip-path:url(#SVGID_4_);}
	.st4{fill:#00FF99;}
	.st5{clip-path:url(#SVGID_6_);}
	.st6{fill:#FFFFFF;}
	.st7{clip-path:url(#SVGID_8_);}
	.st8{fill:#FF0066;}
</style>
<g id="Слой_2">
</g>
<g id="Слой_1_1_">
	<g class="st0">
		<path class="st1" d="M874.7,1267c-0.7-1.5-2.5-3.5-2-4.4c5.7-11,11.1-22.2,18.3-32.2c1.3-1.9,10,1.5,15.3,2.5
			c-5.7-9.9-11.3-19.8-17.3-29.6c-2.1-3.5-5.1-6.5-7.7-9.8c2-0.6,5.6-0.9,5.7-1.8c1.1-6.2,1.8-12.6,2.1-19c0.1-1.9-2.9-5.2-2.4-5.7
			c4.4-4.6,9.3-8.7,14.2-12.8c0.2-0.2,2.1,0.7,2.2,1.4c0.5,2.2,0.7,4.6,0.9,6.9c0.7-0.6,1.9-1.1,2-1.8c1-4.4,1.8-8.8,2.5-13.2
			c0.3-2.1,0.2-4.2,0.5-6.3c0.3-1.7,1-3.3,1.5-4.9c-1.3,1-2.6,2.1-4,3c-1.5,0.9-3.1,1.5-4.6,2.2c-0.5-1.3-1.4-2.6-1.3-3.8
			c0.2-4.1,0.7-8.1,1.1-12.1c2.3,1.9,4.4,4.8,7,5.4c1.7,0.4,4.1-2.6,6.3-3.9c1.8-1.1,4.6-3.3,5.5-2.7c17.5,11.1,19.1-17.8,34.7-13.9
			c3.7,0.9,9.7-7.5,14.7-11.6c0.1-0.1,0.3-0.2,0.5-0.2c5.7-0.2,11.3-0.4,17-0.7c2.1-0.1,4.2-0.8,6.3-1.2c-1-2.3-2-4.6-2.9-6.9
			c-0.7-1.8-2.1-4-1.5-5.4c0.6-1.7,2.7-3.3,4.6-4.1c12.3-5.2,24.4-11.3,37.1-14.9c14.7-4.1,29.9-6.9,45.1-8.2
			c5.1-0.4,12.1,9.1,15.8,7.6c7.8-3,15.9-9,20.3-16c5.5-8.8,7.4-19.8,10.8-29.8c1.6,2.1,3,4.3,4.7,6.3c2.9,3.3,6,6.6,9.1,9.8
			c0.6,0.6,1.5,0.9,2.3,1.3c-1.1-2.5-1.6-5.6-3.5-7.4c-28-26-56.1-51.8-84.2-77.7c6.6-1.7,16.6-7.1,19.2-4.7
			c28,26.1,54.8,53.4,82,80.4c0.1,0.5,0.3,1,0.4,1.6c1.2,2.1,2.5,4.3,3.7,6.4l0,0c3.9,6.7,7.9,13.3,11.8,20c0.2,0.5,0.3,1,0.5,1.6
			c0.5,1.5,0.9,2.9,1.4,4.4c0.1,2,0.2,3.9,0.4,5.9c-1.8-1.9-3.6-3.8-5.3-5.8c-0.8-1-1.1-2.6-2.1-3.3c-2.1-1.5-4.5-2.5-6.7-3.7l0,0
			c-0.1,1.6-0.7,3.3-0.2,4.7c1.9,5.5,7.5,12.7,5.7,16.1c-15.1,28.6-31.5,56.5-47.4,84.7c-16.9,29.8-33.6,59.6-50.5,89.3
			c-0.4,0.8-1.7,1.1-2.6,1.7c-0.3-1.2-1-2.5-0.8-3.6c2.4-12,4.4-24.1,7.5-36c9.4-36.4,19.3-72.7,28.9-109c0.3-1.3-0.8-2.9-1.3-4.3
			c-1.4,0.7-3.6,1.1-4,2.2c-4.2,11.9-9.3,23.6-11.8,35.8c-9,43.7-17.1,87.7-25.6,131.5C994.7,1267,934.7,1267,874.7,1267z"/>
		<path class="st1" d="M910.7,998c11-6.7,21.7-14,33.1-19.8c7.7-3.9,16.5-5.9,24.9-8.2c0.7-0.2,4,4.8,3.5,5.3
			c-1.9,2.4-4.9,3.8-7.2,5.9c-21.9,19.8-42.7,41.1-66.1,59c-13.5,10.4-32.4,13.5-46.5,23.2c-13.3,9.1-23.8,22.5-35.1,34.4
			c-1.6,1.7-0.3,6-0.4,9.1c2.2-0.2,4.5-0.3,6.6-0.7c12.2-2.4,24.3-4.7,36.4-7.7c2.4-0.6,4-4.1,6.4-5.7c17-11.7,34.1-23.3,51.1-35
			c0.8-0.6,1.3-1.6,2.1-2.3c8.7-7.2,17.3-14.5,26.3-21.2c0.5-0.4,6.2,3.8,5.9,4.9c-1.7,6.2-4.5,12.2-6.9,18.2
			c-0.6,1.4-1.1,2.9-1.6,4.3c1.7,0,3.5,0.3,5.1,0c3.6-0.6,7.1-1.4,10.6-2.1c0.1,0.9,0.5,2.4,0.1,2.8c-3.5,3.2-6.9,6.5-10.8,9.1
			c-6.7,4.5-13.7,8.5-20.5,12.8c-5.8,3.6-11.5,7.3-17.2,11c-0.5,0.3-1.1,0.7-1.4,1.2c-6,8.9-10.1,20.4-18.3,26.1
			c-10.1,6.9-23.5,9.2-35.6,12.9c-1.5,0.5-4.5-2.7-6.3-4.6c-0.9-1-0.5-3.1-0.7-4.7c-1.3,1.3-2.5,2.8-3.9,4c-2.8,2.4-5.8,4.7-8.7,7
			c-1.1-3.7-1.6-7.9-3.5-11.1c-2.3-3.9-6-6.9-9.1-10.3c-0.5,2-1.1,3.9-1.3,5.9c0,0.2,2.8,0.3,3.5,1.1c0.8,0.9,1.5,3,1,4
			c-4.7,9.2-9.5,18.3-14.7,27.2c-1.6,2.7-4.9,4.4-7,6.8c-2.2,2.5-4,5.4-6.2,8c0,0-2.2-1.1-2.3-1.8c-0.8-7.9-1.6-15.9-2.1-23.9
			c-0.1-1.5,1-3.1,1.1-4.7c0.9-8.4,0.2-17.3,2.9-24.9c2-5.4,8.6-9.2,13.2-13.6c-7.3-3.2-16.3-10.8-21.7-8.8
			c-13.7,5.1-25.9,14.4-38.6,22.1c-0.5,0.3-1,2-0.9,2.1c11.7,9.2,9.1,14.1-4.5,16.7c-0.9,0.2-0.8,5.3-1.2,8.1
			c1.6-0.9,3.3-1.8,4.8-2.9c1.6-1.2,3.1-2.7,4.7-4c-0.7,5.1-1.3,10.2-2.4,15.2c-0.2,0.9-2.8,1.9-4.2,1.9c-9.3-0.3-18.7-0.2-27.8-1.7
			c-3.1-0.5-5.1-5.7-8.2-7.8c-2.5-1.7-5.8-2.1-8.9-2.6c-0.4-0.1-1,3.5-2.1,4c-3.7,1.6-10.9,2.2-11.1,3.8
			c-1.3,11.2-1.9,22.5-1.2,33.7c0.4,7.4,4.6,14.7,4.6,22.1c0,6.8-3.5,13.6-5.4,20.3c-0.2,0.5-0.4,1-0.7,1.6c2,0.7,4.5,1,5.8,2.3
			c3.5,3.9,6.5,8.2,9.2,12.8c0.2,0.3-6.1,3.3-6.3,5.2c-0.5,7.6,0.3,15.3,0.6,22.9c-11.3,0-22.7,0-34,0c-0.7-13.1-2.2-26.2-1.6-39.2
			c0.3-6.5,4.2-12.9,7.1-19c0.4-0.9,3.8-0.5,5.9-0.7c-1.1-2.6-2.4-5.1-3.1-7.8c-2.5-9.4-5.2-18.8-6.7-28.4c-0.2-1.5,5.5-3.7,8-6.1
			c1.5-1.5,2.2-3.9,3.2-5.8c-1.5-0.6-3.3-1-4.5-2c-4.1-3.3-8.1-6.8-12.1-10.2c0-0.9,0-1.9,0.1-2.8l0,0c1-0.7,2-1.4,3-2.1l0,0
			c0.6-0.7,1.1-1.3,1.7-2c0.3-1,0.6-2,0.8-2.9c-0.8-5.3-1.7-10.6-2.5-15.9c-2.1-3-4.1-6-6.2-9.1c2.9-2.3,6-6.7,8.6-6.4
			c9,1,19,7.4,26.5,5c20.2-6.3,38.9-16.8,58.8-24.2c14.4-5.4,29.4-9.6,44.5-12c7.3-1.2,16.8,6.3,22.8,3.9c8.7-3.5,14.8-13,22.7-19.1
			c8.7-6.6,18.2-12.2,27.3-18.3l0,0c20.1-13.3,40.2-26.5,60.2-40c0.9-0.6,0.6-2.8,0.8-4.3c-1.3-0.2-3-1-3.9-0.5
			c-23.5,12.9-47,25.9-70.3,39.1c-9.1,5.2-17.9,11-26.8,16.6c-4,0.6-8,1.2-11.9,1.8c-1.6-1.2-3.2-2.5-4.8-3.7
			c-2.8-2.4-5.5-4.7-8.3-7.1c5.6-2.6,11.1-5.1,16.7-7.7c0.2-0.3,0.5-0.7,0.7-1c1-5,1.8-9.9,2.9-14.9c0.3-1.6,0.7-3.6,1.8-4.4
			c1.4-1,3.6-0.9,5.4-1.3c-0.1,1.4,0.1,2.9-0.2,4.2c-0.5,2.6-1.2,5.1-1.8,7.6c1.8-2.3,3.5-4.7,5.4-6.9c2.2-2.5,4.7-4.9,7-7.3
			c0,1.4,0.1,2.9-0.1,4.3c-0.1,1.1-0.7,2.2-1,3.2c1.1-0.8,2.5-1.4,3.2-2.5c6.9-11,13.6-22.1,20.4-33.2c1.3,1.3,3.6,3.7,3.7,3.6
			c6.4-5.5,12.7-11.2,18.8-17c1.8-1.7,2.9-4,4.3-6.1c1.2,1.5,3.1,2.9,3.5,4.6c0.7,3,1.8,7.8,0.3,9.2c-11.4,10.9-23.6,21.1-35.3,31.7
			c-1.8,1.6-2.6,4.3-3.8,6.4c3.4,1,7.5,3.9,10.1,2.9c15.4-6.4,30.5-13.8,45.7-20.8C909,998.1,909.9,998.1,910.7,998
			c0.1,0,0.2,0.1,0.3,0.2C910.9,998.1,910.8,998.1,910.7,998z"/>
		<path class="st1" d="M130.5,1010.9c0.1,9.4,1.9,19.2,0,28.2c-2.4,11.2-7.7,21.8-11.8,32.6c2.3,0.6,4.6,1.7,6.9,1.7
			c2.7,0.1,7,0.2,7.8-1.2c2.9-5.4,4.6-11.4,6.8-17.2c4.7,5.9,12.1,11.2,13.6,17.9c4.4,19.1,6.9,38.6,9.2,58.1
			c1.2,10,2,20.5,0.3,30.3c-1.5,8.9-6.6,17.1-10.1,25.7c-3.5-13.4-6.8-26.9-10.6-40.2c-2-6.9-5-13.5-7.6-20.2
			c-0.5,4.3-1.2,8.6-1.6,13c-0.4,4.8-0.5,9.6-0.7,14.4c-0.1-0.1-0.2-0.1-0.3-0.2c0.1,0,0.2,0.1,0.3,0.1c-0.1,2.6-0.6,5.3-0.2,7.9
			c5,35.1,10.1,70.1,15.2,105.1c-4.3,0-8.7,0-13,0c-3.7-3.8-8.4-7-10.7-11.5c-2.5-4.6-2.7-10.4-3.9-15.6c4.5,0.7,9.1,1.5,13.6,2.1
			c2.7,0.4,5.5,0.5,8.2,0.5c0.4,0,1.3-1.6,1.1-1.8c-7.1-8.7-14.1-17.4-21.6-25.8c-3.1-3.4-7.3-5.8-10.9-8.6c3.4,0.5,7.6,2.6,9.9,1.2
			c2.8-1.7,5.6-6.2,5.5-9.4c-0.5-14.6-1.7-29.3-3.4-43.8c-0.9-7.6-3.1-15-5.4-22.3c-0.3-1.1-6-1.7-6.1-1.4c-2.3,6.2-5,12.5-6,19
			c-1.6,10.4-2.7,20.9-2.5,31.4c0.1,6.4,4.5,13,3.5,18.9c-0.4,2.8-11.6,3.1-13.2,6.6c-3.3,7.5-3.5,16.4-5,24.7
			c-2.3,12-4.6,23.9-7,35.8c-3.7,0-7.3,0-11,0c-0.1-2-0.6-4-0.2-5.9c4.3-21.7,8.8-43.4,13.2-65.1c0-1.6,0.1-3.3,0.1-4.9
			c1.9-6.1,3.7-12.3,5.6-18.4c0.1-0.9,0.2-1.7,0.3-2.6c0.6-1.8,1.2-3.6,1.8-5.4c0.1-0.9,0.1-1.7,0.2-2.6c0.7-2.3,1.3-4.7,2-7
			c0-1.6,0-3.3,0-4.9c0.7-0.9,1.8-1.6,2.1-2.6c5.7-19,11.5-37.9,16.9-57c1.4-5,1.7-10.3,2.5-15.4c3.8-14.4,7.5-28.9,11.3-43.3
			c0.3-1,0.6-2.1,0.9-3.1c0.2-0.5,0.4-1.1,0.6-1.6c0.6-2.7,1.2-5.4,1.8-8.1c0.2-1.3,0.3-2.6,0.5-3.8c0.1-0.7,0.2-1.5,0.2-2.2
			C129.7,1012.3,130.1,1011.6,130.5,1010.9z M156.4,1165.8c-0.3,1.6-0.7,2.4-0.5,3.1c0.1,0.5,0.8,0.9,1.3,1.4
			c0.2-0.7,0.5-1.5,0.5-2.2C157.6,1167.5,157.1,1167,156.4,1165.8z M122.3,1137.3c-0.1-0.3-0.2-0.6-0.3-0.7
			c-0.2-0.1-0.5,0.2-0.7,0.3c0.1,0.3,0.1,0.6,0.3,0.7C121.7,1137.6,122,1137.4,122.3,1137.3z"/>
		<path class="st1" d="M199.7,1188c-11.3-44.9-22.6-89.7-34-134.6c-1-3.8-2.3-7.6-2.8-11.5c-0.4-3,0.3-6.1,0.6-9.1
			c1.7,5.3,2.9,10.8,5.3,15.7c3.3,6.8,7.3,13.2,11.3,19.6c0.2,0.3,3.1-1.2,4.8-1.9c-2.1,2.4-4.2,4.8-6.1,7.4c-0.4,0.5-0.2,2.4,0,2.4
			c1.6,0.6,3.4,0.9,5.1,1c1.5,0.1,3.1-0.5,4.6-0.4c0.4,0,1.1,2,0.8,2.5c-2.6,3.5-5.5,6.8-8.1,10.3c-0.3,0.3,0.7,1.6,1.1,2.4
			c2,3.8,4,7.5,5.9,11.4c0.4,0.8,0.4,2.5,0.5,2.5c3.6-0.4,7.3-0.8,10.8-1.5c0.4-0.1,1-2,0.8-2.9c-3.1-13.8-6.4-27.6-9.6-41.3l0,0
			c0.5,0,1.4-0.1,1.4,0.1c7.6,19.1,5.1,4.5,5.5-1.5c0-0.1,4.1-0.7,4.7,0.1c1.8,2.4,3.7,5.3,4.1,8.2c5.3,38.8,10.3,77.7,15.6,116.5
			c2.8,20.6,6.8,41.1,9.2,61.8c0.8,7.1-1.6,14.5-2.5,21.8c-3,0-6,0-9,0c-0.3-18.8,0.3-37.6-1-56.4c-2.5-36.8-6.1-73.4-9.4-110.2
			c-0.1-1.2-1.8-2.2-2.8-3.3c-0.5,0.8-1.6,1.6-1.5,2.3c0.9,9.4,1.7,18.8,2.9,28.2c2.2,17.6,5.2,35.2,6.6,52.9
			c0.8,10.1-0.8,20.4-1.7,30.6c-0.2,2.1-3,4.1-2.9,6.1c0.7,16.6,1.8,33.2,2.7,49.7c-2,0-4,0-6,0c-4.4-14.6-8.5-29.4-13.3-43.9
			c-2.8-8.2-8.7-15.9-9.3-24.1C183.9,1195.8,194.2,1191.7,199.7,1188c0.1,0.1,0.2,0.1,0.4,0.2C200,1188.2,199.9,1188.1,199.7,1188z"
			/>
		<path class="st1" d="M291.7,1267c-1.8-10.8-3.6-21.5-5.4-32.3c1.5,0.3,3.7,0.1,4.4,1c2.4,2.9,4.2,6.2,6.3,9.3
			c0.8,1.2,2,2.2,2.9,3.4c0.5-2,1.6-4.1,1.5-6.1c-1.1-20.1-2.4-40.1-3.8-60.1c-0.5-7.7-1.2-15.4-2.5-23c-1.5-8.7-3.2-17.5-6.2-25.8
			c-1.1-3-6.1-4.7-9.4-6.9c-2.5-1.7-7.1-3.4-7.2-5.1c-0.1-6.4,1.1-12.9,2.2-19.2c0.7-3.9,1.3-8.3,3.5-11.3c2.3-3.2,6.8-4.7,9.7-7.5
			c1.5-1.5,1.8-4.4,2.6-6.6c3.9,5.7,10.1,11,11.3,17.3c3.2,17.1,4.8,34.6,6.1,52c0.8,11-0.7,22.2,0.4,33.1c0.5,4.9,4.9,9.3,7.5,14
			l0,0c3.6,12.5,7.7,24.9,10.7,37.6c1.5,6.6,0.3,13.8,1.8,20.4c0.9,3.7,4.2,7.6,7.5,9.8c2.6,1.8,6.8,1.2,10.3,1.7
			c-3.7,0.3-7.4,0.2-11,0.9c-1.3,0.3-2.2,2.3-3.3,3.6C318.4,1267,305.1,1267,291.7,1267z"/>
		<path class="st1" d="M1085.7,1267c16.1-28.2,32.5-56.1,48.1-84.6c6.3-11.6,10.8-24.2,16.2-36.2c0.9-2,2.4-3.7,3.6-5.6
			c0.7,2.1,2.1,4.2,1.9,6.2c-3.5,28.7-7.3,57.4-10.8,86.2c-1.4,11.3-2,22.7-3,34.1C1123.1,1267,1104.4,1267,1085.7,1267z"/>
		<path class="st1" d="M1186.7,1267c0.2-14.6,1.8-29.4,0.4-43.9c-2.2-24.4-6.5-48.5-9.5-72.9c-1.5-12.2-2.1-24.6-3.4-36.9
			c-0.2-1.6-2.1-3-3.2-4.4c0-0.7-0.1-1.4-0.1-2c0.5-0.7,1-1.3,1.5-2c0.5-1.3,1-2.6,1.5-3.9c3.6,6,7.3,12,10.9,17.9
			c0.1,0.1,0.2,0.2,0.3,0.2c-0.1-0.1-0.2-0.1-0.4-0.2c-1.4-8.5-2.8-17.1-4.3-25.6c2.7,11,5.7,22,8,33.1c2.4,11.8,4.2,23.7,6.3,35.5
			c-1-2.9-2.2-5.8-2.9-8.7c-1.9-7.6-3.6-15.2-5.4-22.8c0.1,6.9-0.1,13.7,0.5,20.6c0.9,9.8,2.6,19.6,3.9,29.4
			c1.3-5.2,2.6-10.4,4-15.6c3.7,34,7.3,68,11,102C1199.4,1267,1193.1,1267,1186.7,1267z"/>
		<path class="st1" d="M1153.7,1267c2.5-34.3,4.8-68.6,7.7-102.9c0.3-3.7,4.2-7,6.4-10.5c0.8,4.1,2.1,8.1,2.4,12.2
			c1.5,22.2,3.3,44.4,3.9,66.6c0.3,11.5-1.6,23.1-2.5,34.7C1165.7,1267,1159.7,1267,1153.7,1267z"/>
		<path class="st1" d="M645.6,1150.1c-4.6,5.7-10.2,11-13.6,17.4c-2.9,5.6-3.5,12.5-4.7,19c-0.6,3.2-0.3,6.5-0.7,9.7
			c-0.1,0.7-1.5,1.6-2.5,1.7c-0.7,0.1-1.9-0.7-2.2-1.4c-2.3-6-4.5-12.1-6.7-18.1c-0.2-0.4-0.8-0.7-1.2-1.1c-0.4,1.1-1.1,2.3-1.2,3.4
			c-2.7,28.8-5.4,57.5-8.1,86.3c-0.7,0-1.3,0-2,0c2.9-35,5.7-70.1,8.7-105.1c0-0.6,1.9-1,2.8-1.5c0.5,1.6,1.3,3.1,1.3,4.7
			c0,3.1-0.5,6.2-0.8,9.3c0.8-0.7,1.8-1.3,2.5-2.1c1.9-2.1,3.6-4.3,5.4-6.4c0.1-0.1,0.1-0.2,0.2-0.3c-0.1,0.1-0.1,0.2-0.2,0.4
			c-0.9-5-4.1-11.3-2.2-15c12.6-25,26.3-49.4,39.7-74.1c1.1,0,2.3,0,3.4,0c-0.5,2-0.9,4-1.4,6c-6.8,9.6-13.7,19.3-20.5,28.9
			c-7.8,13.4-13.5,26.5,4.2,37.1C645.7,1149.4,645.7,1149.7,645.6,1150.1z M625.6,1153.5c-0.2,0.2-0.3,0.4-0.5,0.7
			c0.3,0.1,0.5,0.2,0.8,0.3c0.1,0,0.3-0.3,0.2-0.3C626.1,1153.9,625.9,1153.7,625.6,1153.5z"/>
		<path class="st1" d="M167.7,1267c-3.1-21.2-6.2-42.4-9.4-63.7c4.1,9.3,8.2,18.5,12.1,27.8c5.1,11.9,10.2,23.9,15.2,35.9
			C179.7,1267,173.7,1267,167.7,1267z"/>
		<path class="st1" d="M514.9,743c0-1-0.1-2-0.1-3c0.7-2.7,1.3-5.3,2-8c-0.1-3.6-0.2-7.2-0.3-10.8c-0.6-1.7-1.1-3.4-1.7-5.2
			c-0.1-0.9-0.2-1.9-0.3-2.8c-2.6-5.1-5.1-10.1-7.7-15.2c-0.1-0.9-0.2-1.9-0.3-2.8c-2.6-6.4-5.1-12.8-7.7-19.2
			c-0.1-0.9-0.2-1.9-0.3-2.8c-1.2-2.4-2.5-4.8-3.7-7.2c-0.1-0.9-0.2-1.9-0.3-2.8c-0.6-1.7-1.1-3.5-1.7-5.2c-0.1-1.6-0.2-3.2-0.3-4.8
			c-0.7-1.7-1.3-3.4-2-5.1c0-0.9-0.1-1.9-0.1-2.8c-0.1-1.7,0.5-3.9-0.3-5c-7.5-10.1-15.3-20.1-23-30.1c1.6,0.3,3.3,0.3,4.6,1
			c3.9,2.1,7.6,4.5,11.5,6.8c-1.7-4.2-3.9-8.3-4.9-12.6c-1-4-0.6-8.3-0.9-12.4c-0.3-4.8,0.5-10.1-1.3-14.4
			c-2.5-5.8-6.8-10.9-10.4-16.3c-3.9-5.8-7.9-11.6-11.8-17.4c-0.6-0.8-1.7-1.5-1.9-2.4c-2.1-7.8-4-15.5-6-23.3
			c0.5-5.5,0.6-11.1,1.5-16.5c1.8-11,7.2-22.5,5.6-32.9c-3.8-23.6-12.7-46.5-15.9-70.2c-1.7-12.9,9.7-29.4,5.1-39.9
			c-9.8-22.6-0.3-38.4,9.7-55.7c4.1-1.6,9.1-2.2,12.2-5c11-9.9,21.4-20.5,32.1-30.8c0.5-0.5,1.5-0.9,2.2-0.8
			c3.4,0.4,8.1,2.7,10.1,1.2c19.2-14.4,37.6-29.6,56.9-43.9c5.2-3.9,12.3-5.2,18.5-7.7c-3.9-0.8-7.7-1.6-11.6-2.4
			c5.5-2.2,11.1-4.3,16.6-6.5c4,1.3,8,2.6,12,3.9c-8.5,5.4-17,10.7-25.3,16.4c-1.4,0.9-1.5,3.7-2.2,5.6c1.4-1.3,2.6-3,4.3-3.8
			c11.3-5.3,22.8-10.3,34.2-15.5c3.9,2.4,7.6,4.9,11.6,7c1.5,0.8,3.4,0.9,5.1,1.4c0.6-2.9,1.4-5.7,1.6-8.7c0-0.6-2.4-1.4-3.7-2
			c-8.7-3.9-17.4-7.8-26.1-11.7c-0.1,0,0-0.6,0-0.6c6.9,0,14-0.9,20.6,0.4c3.4,0.6,6.2,4.9,9,7.8c4.8,5.2,9.3,10.8,13.9,16.1
			c0.3,0.3,1.1,0.3,1.6,0.4c-2.3-3.7-4.7-7.3-6.9-11c-0.3-0.5,0.5-2.3,0.7-2.3c5.6,0.1,11.2,0.9,16.7,0.4c2.5-0.2,4.9-2.7,7.3-4.2
			c0.6-0.4,1.1-1.1,1.7-1.1c2,0,4.1,0.2,6.1,0.3c-2-1.8-3.6-4.3-5.9-5.3c-5.6-2.3-11.5-3.6-17.2-5.6c-2.6-0.9-5.1-2.4-7.6-3.7
			c2.7,0.2,5.4,0.3,8.1,0.6c6.6,0.8,13.2,1.6,19.8,2.7c1.4,0.2,2.5,1.7,3.8,2.5c0.2-1,0.7-2.7,0.4-2.8c-11-6.3-22.1-12.4-33.2-18.5
			c-0.2-0.3-0.3-0.6-0.5-1c-1.9-2-3.9-3.9-5.8-5.9c4.9,1.1,9.8,2.2,14.7,3.4c12.5,3.6,24.8,7.6,37.4,10.6
			c14.6,3.5,29.5,6.3,44.2,9.3c0.8,0.9,1.7,1.7,2.5,2.6c1,0.4,1.9,0.8,2.9,1.1s2.1,0.6,3.1,0.8c1,0.7,1.9,1.4,2.9,2
			c0.7,0.7,1.4,1.3,2.1,2c0.7,0.4,1.3,0.7,2,1.1c3.3,1,6.7,1.9,10,2.9c6.1,3.3,12.3,6.5,18.4,9.8c0.5,0.4,1.1,0.8,1.6,1.2
			c0.3,0.3,0.7,0.7,1,1c2.9,2.3,5.9,4.7,8.8,7l0.1,0.1c1.3,0.6,2.7,1.2,4,1.9l0,0c0.7,1,1.4,2,2.1,3c0.6,0.4,1.3,0.7,1.9,1.1
			c0.6,0,1.2,0,1.9-0.1l0.1,0.1c0.1,0.6,0.1,1.2,0.2,1.8c2.2,1.4,4.5,2.7,6.7,4.1c0.7,0.1,1.4,0.3,2,0.4c0.8,0.7,1.6,1.5,2.4,2.2
			l0.1,0.1c0.6,0.6,1.3,1.3,1.9,1.9l0.1,0.1c0.6,0.6,1.3,1.2,1.9,1.9l0.1,0.2c2.6,6.4,5.1,12.8,7.7,19.2c8.9,16,17.8,32,26.7,48
			c0.3,0.7,0.6,1.4,1,2.1l0.1,0.1c3.4,5.7,6.8,11.3,10.1,17c1.3-1,2.6-2.1,3.8-3.1c0.7,1,1.4,2,2.2,3c0.2,2,0.4,4,0.7,6
			c0.2,1.6,0.3,3.2,0.5,4.8c-0.1,0.7-0.3,1.4-0.4,2.2c0.2,0.7,0.5,1.4,0.7,2.1c2.9,2.4,5.8,4.8,8.6,7.2c0.3,10.2,0.7,20.3,1,30.5
			c0.3,1.7,0.5,3.5,0.8,5.2c0.3,1.3,0.5,2.7,0.8,4c1.3,1.6,2.6,3.3,3.8,4.9c0.2,17.3,0.3,34.6,0.5,52c-0.2,0.3-0.4,0.6-0.6,0.9
			c2.4,7.7-19.6,17.1,1.5,24c0.5,0.2-0.5,8.8-2.6,12.4c-7.7,12.8-16.2,25.1-24.3,37.6c-0.8,1.2-1,3.5-1.8,3.6
			c-1.2,0.2-2.7-1.2-4.2-1.3c-1.7-0.1-4.7,0.2-4.8,0.7c-3.7,18.8-7.2,37.6-10.7,56.4c-1.2,6.5-2.6,12.9-3.9,19.4
			c-0.7-3.8-1.6-7.5-2-11.3c-0.2-2.4,0.7-5,0.5-7.4c-1.6-17.4-5.4-34.9-4.5-52.2c1.3-23.3,9.3-46.6,8.4-69.7
			c-0.7-18.2-12.9-35.6-15.7-54.1c-1.9-12.1,7.1-25.8,5.5-38.1c-3.5-25.7-4.2-56-18.5-75c-15.1-19.9-44.5-29.2-68.1-42.2
			c-15.3-8.5-31-19.9-47.5-21.7c-16.5-1.9-34.1,7.1-51.4,10.1c-15.1,2.7-33.3-0.7-45.2,6.6c-20.1,12.4-36.3,31.1-54.1,47.1
			c-2.9,2.5-5.9,4.9-8.8,7.4c-9.8,11.7-21.4,22.3-28.9,35.3c-12.8,22.2-16.6,45.6,2.6,67c0.5,0.5,6-3.5,9.3-5.3
			c7.6-4.4,15.3-8.7,23-13c0,0,0.1,0,0,0c32.1-5.5,63.6-4.9,84,24.5c6,8.7,2.4,24.7,1.3,37.2c-0.2,1.6-12.1,2.6-18.6,2.9
			c-1.9,0.1-3.9-3.3-5.9-5.1c-0.1,0.9-0.6,1.8-0.4,2.6c0.6,2.3,1.4,4.5,2.2,6.7c-2.5,0.4-5.1,1.2-7.6,1c-1.5-0.2-3.1-1.9-4.1-3.3
			c-2.9-3.9-5.5-7.9-8.2-11.9c-1.5,3.2-2.5,8.5-4.7,9.1c-8.2,2.1-16.7,3.3-25.2,3.4c-2.5,0-5-4.5-7.5-6.9c-1.7,6.2-6,13-4.7,18.6
			c3.6,15.9,0.3,23.2-16.8,17.2c-9.6-3.4-18.6-8.7-28.1-12.4c-2.5-1-6.2,1-9.3,1.8c-0.5,0.1-1.2,1.1-1.2,1.7
			c1.9,19.6-1.5,42.2,7.4,58c10.3,18.4,18.2,36,22.8,56.4c3.6,15.9,11.2,31,17.7,46.2c5.8,13.4,12.9,26.2,18.8,39.6
			c4.2,9.7,6.8,20.2,11.2,29.8c3.1,6.7,8.2,12.4,12.4,18.5c0.3,0.5,0.7,1.1,1.2,1.4c8.7,4.4,17.1,10.2,26.4,12.7
			c15,4,30.9,9.1,45.8,7.5c21.6-2.3,42.6-10.1,63.8-15.7c3.1-0.8,6.2-3,9.2-2.8c3.1,0.2,6.9,4.4,8.9,3.5c6.7-3,12.7-7.5,18.9-11.4
			c15.5-9.7,32.2-17.9,46-29.6c13.3-11.3,23.5-26.2,35-39.5c-7.5,29.8-15,59.5-22.5,89.3c-3.2,2.1-7,3.7-9.6,6.4
			c-6.9,7.1-12.7,15.2-20,21.8c-24.8,22.3-49.9,44.3-75.2,65.9c-17.7,15.2-35.8,29.9-54.2,44.3c-7,5.5-15.5,9.1-22.6,14.4
			c-1.6,1.2-0.4,5.9-0.6,9c-6.9-3.8-15.9-5.9-20.4-11.6C581,866.6,565.7,845,551.2,823c-12.1-18.3-23.2-37.3-33.2-56.8
			C514.6,759.7,515.8,750.8,514.9,743z M468.3,317.3c-2.3,0.6-0.1,0,2.1-0.5c-1.8-0.3-3.6-0.5-5.4-0.8c-0.5-0.1-1-0.6-1.4-1
			c0.3-0.3,0.6-0.8,1-0.9c10.6-2.4,21.2-4.8,31.8-7.1c0.8-0.2,1.8,0.4,2.7,0.6c-0.6,0.5-1.3,1.1-1.9,1.5c-1.2,0.9-2.5,1.8-3.8,2.7
			c1.5-0.3,3-0.4,4.4-0.9c4-1.6,8-3.1,11.9-5c4.2-2,8.3-4.4,12.4-6.7c-3.7,0.6-7.5,1.2-11.2,1.6c-0.7,0.1-1.4-0.4-2.1-0.6
			c2.1-2,4-4.1,6.3-5.8c3-2.3,6.2-4.2,9.3-6.3c-4.7,1.7-9.4,3.4-14.1,5c-13.7,4.4-27.6,7.9-40.9,13.2c-6.6,2.6-12.1,8.1-18,12.3
			C455.3,318.3,459.5,318,468.3,317.3z M734.7,239.5c-8.3,1-9.8,1.1-11.4,1.3c1.2,1.2,2.1,2.8,3.5,3.7c8.4,5.2,16.8,10.2,25.4,15.1
			c3.6,2.1,7.4,3.7,11.1,5.4c0.6,0.3,1.6-0.5,2.4-0.8C754.2,255,742.6,245.8,734.7,239.5z"/>
		<path class="st1" d="M800.8,770.8c10.2,8.7,23.8,15.6,29.7,26.6c9.2,17.4,13.1,37.5,19.3,56.5c-9-19.9-17.1-40.2-27.2-59.5
			c-6.7-12.8-17.5-23.4-24-36.2c-2.8-5.5,0.6-14.1,1.1-21.3c7.5-29.8,15-59.5,22.5-89.3c1.3-20.7,1.9-41.7,26.1-50.5
			c5.6-6.3,11.1-12.6,16.7-18.8c5-10.5,9.9-20.9,14.9-31.4c3.3-17.7,6.5-35.4,9.8-53.1c-3.9-14.7-7.7-29.3-11.6-44
			c0.2-0.3,0.4-0.6,0.6-0.9c17.3,31.2,17,62.6,5.6,96.3c-9.6,28.4-24,50.5-50.9,64.5c-4.3,2.2-6.7,10-8,15.7
			c-8.2,36.6-16.4,73.3-23.5,110.2C799.7,747,801.1,759.1,800.8,770.8z"/>
		<path class="st1" d="M1176.7,1091.1c-5.3,0-10.6,0-15.9,0c1.7-5,3.4-10,5-14.9c3.7,3.7,7.4,7.4,11.2,11.1
			C1176.9,1088.5,1176.8,1089.8,1176.7,1091.1z"/>
		<path class="st1" d="M862.5,343.1c0.1-0.7,0.3-1.4,0.4-2.2c3,3.8,6,7.6,9,11.4c-2.9-2.4-5.8-4.8-8.6-7.2
			C863,344.5,862.7,343.8,862.5,343.1z"/>
		<path class="st1" d="M878.3,397c-1.3-1.6-2.6-3.3-3.8-4.9c-0.3-1.3-0.5-2.7-0.8-4c-0.3-1.7-0.5-3.5-0.8-5.2
			C874.7,387.6,876.5,392.3,878.3,397z"/>
		<path class="st1" d="M1172.7,1068.1c2.4,3.3,4.7,6.5,7.1,9.8c-3-3.7-5.9-7.3-8.9-11C1171.5,1067.3,1172.1,1067.7,1172.7,1068.1z"
			/>
		<path class="st1" d="M794.8,233c-0.1-0.6-0.1-1.2-0.2-1.8c2.1,1.2,4.2,2.4,6.3,3.6c-0.2,0.2-0.3,0.4-0.5,0.6
			C798.5,234.6,796.7,233.8,794.8,233z"/>
		<path class="st1" d="M1179.9,1077.9c0.9,0.4,1.9,0.7,2.8,1.1c0,0.7,0,1.4-0.1,2c-1.3,1-2.6,2-3.9,3
			C1179.1,1082,1179.5,1080,1179.9,1077.9z"/>
		<path class="st1" d="M790.7,230.1c-0.7-1-1.4-2-2.1-3c2,1.3,3.9,2.7,5.9,4c-0.6,0-1.2,0-1.9,0.1
			C792,230.8,791.4,230.5,790.7,230.1z"/>
		<path class="st1" d="M788.6,227.1c-1.3-0.6-2.7-1.2-4-1.9C786,225.9,787.3,226.5,788.6,227.1z"/>
		<path class="st1" d="M803.6,237.5c-0.7-0.1-1.4-0.3-2-0.4c-0.4-0.6-0.8-1.1-1.2-1.7c0.2-0.2,0.3-0.4,0.5-0.6c1.3,0.7,2.7,1.3,4,2
			c-0.2,0.2-0.3,0.4-0.5,0.6C804.1,237.4,803.8,237.4,803.6,237.5z"/>
		<path class="st1" d="M514,830.8c20.1,25.3,39.4,51.3,60.7,75.5c7.4,8.4,23,10.2,29.3,19c8.9,12.6,12.7,28.9,18.6,43.6
			c-0.3,0.3-0.6,0.6-0.9,1c-3.3,1.1-6.6,2.3-9.8,3.4c-1.2-0.4-2.4-0.7-3.6-1.1c0.1-1.1,0.2-2.2,0.3-3.2c1.9-0.9,3.8-1.9,5.7-2.8
			c-1.8-7-3.6-13.9-5.4-20.9c-1.2,1.6-3.7,3.6-3.4,4.6c2,5.5,4.7,10.7,7.2,16c-1,0-2,0-3,0.1c-0.2-0.5-0.5-1-0.7-1.6
			c-0.4,0.5-0.8,1-1.3,1.5c-1.3,0-2.5,0-3.8-0.1c-5.8-4-11.6-8-17.5-11.9c3.5-1.6,10.3-4.1,10.2-4.7c-2.3-8-5.6-15.7-8.6-23.4
			c0-0.3-0.1-0.5-0.2-0.8l0,0c2.8,0.9,5.6,1.8,8.4,2.8c-1.4-1.9-2.3-4.4-4.2-5.5c-8-4.6-16.2-8.8-24.3-13.1c-4-0.9-8.4-3.4-11.8-2.4
			c-3.5,1-6,5.4-9,8.3c-4.6-0.3-12.1,0.9-13.1-1.2c-2.9-5.9-1.9-13.8-4.8-19.7c-9.1-18.2-19.3-35.9-29.1-53.8
			c-0.6-1.1-1.9-1.8-2.8-2.7c-0.1,1.1-0.6,2.4-0.2,3.4c9.4,23.8,19,47.6,28.5,71.4c2.2,5.5,4.1,11.1,6.2,16.6
			c-1.4-0.8-3-1.3-4.1-2.4c-12-12.7-23.8-25.5-35.7-38.3c-1.8-2-3.2-4.3-5-6.4c-0.8-0.9-2-1.6-3-2.4c0,1-0.5,2.3-0.1,3
			c11.4,16,23.2,31.8,34.3,48c3.9,5.6,9.4,13,8.3,18.3c-1,4.9-10,8.1-15.4,12.1c0.4-2.7,0.3-5.6,1.2-8.2c1.1-3.3,4.9-7.7,3.9-9.2
			c-3.1-4.8-8-8.4-12.1-12.7c-5.7-6.1-11.3-12.3-16.9-18.5c-1.3-1.4-2.4-3.1-3.5-4.7c0.3,1.7,0.5,3.4,1.1,5c4.5,13,9.1,26,13.6,39
			c0.5,1.6,0.2,3.5,0.3,5.3c-1-1.4-2.5-2.6-2.9-4.1c-8.9-33.2-19.3-66.1-25.6-99.8c-1.8-9.6,7.9-21.3,12.3-32.1
			c1.5-3.5,2.8-7.1,4.4-10.5c1.6-3.3,3.5-6.4,5.2-9.6c1.3,4.8,1.6,10.5,4.2,14.4c11.2,16.5,23,32.5,34.8,48.6
			c0.5,0.6,2.3,0.3,3.4,0.4c-0.5-1-0.8-2-1.4-2.9C526.6,851.2,520.3,841,514,830.8z"/>
		<path class="st1" d="M539.6,982.1c10.2-4.7,13.2-31.6,31.4-11c9.5,10.8,16,24.4,25.7,35c4.3,4.8,13.4,5.1,20,8
			c12.3,5.3,24.4,11,36.6,16.6c4.1,15.2,24,29.6,1.9,46.1c-4.3,3.2-7.6,7.7-11.4,11.6c-5.7-7.7-10.9-15.7-17.3-22.9
			c-3.4-3.9-8.7-6.1-13.1-9.1c0.1,2.7-0.2,5.5,0.5,8c1.5,5.6,3.5,11.1,5.2,16.7c0.3,1,0.1,2.2,0,3.2c0,0.2-1.2,0.4-1.2,0.3
			c-1.1-2.1-2.4-4.2-3.1-6.5c-5.7-19.2-9.8-39.1-17.6-57.3c-5.2-12.1-14.4-23.6-24.6-31.9c-6.2-5-17.8-3.4-26.9-4.9
			C543.6,983.7,541.6,982.8,539.6,982.1z"/>
		<path class="st1" d="M554.1,1083.1c-20-8.5-39.6-14-55.4-25c-7.1-5-6-21.1-9.9-31.7c-6.8-18.7-14.2-37.2-21.9-55.5
			c-4.5-10.7-10.1-20.8-14.8-31.4c-0.5-1.2,1.2-3.4,1.9-5.2c2.3,1.5,5.5,2.4,6.8,4.5c8.5,14.7,15.4,30.4,25,44.4
			c19.1,27.8,39.4,54.6,59.4,81.7c3,4.1,7,7.6,9.9,11.7C556,1077.7,554.6,1080.3,554.1,1083.1z"/>
		<path class="st1" d="M587.7,968.8c-11.3-3.7-22.8-7.1-33.9-11.4c-2-0.8-3.5-4.7-3.9-7.4c-1.4-11.6-2.2-23.3-3.2-35
			c3-2.9,5.5-7.3,9-8.3c3.4-1,7.9,1.5,11.8,2.4c-1.2,2.8-2.4,5.7-3.7,8.5c8,2.7,16,5.4,24,8.1c3,7.8,6.3,15.5,8.6,23.4
			c0.2,0.5-6.6,3.1-10.2,4.7c-0.7,0.9-1.4,1.8-2,2.7c6.5,3.1,13,6.2,19.5,9.2c1.3,0,2.5,0,3.8,0.1c0.7,0,1.3,0,2,0.1c1,0,2,0,3-0.1
			c0.5,0.1,1.1,0.2,1.6,0.3c-1.9,0.9-3.8,1.9-5.7,2.8c-2.4,0.4-4.8,0.8-7.2,1.2c2.3,0.7,4.6,1.4,6.9,2c1.2,0.4,2.4,0.7,3.6,1.1
			c1.7,0.9,3.3,1.8,5,2.7c-1,0.4-2,0.9-2.9,1.3C605.1,974.5,596.4,971.6,587.7,968.8z"/>
		<path class="st1" d="M577.2,1100.5c-3.7-5.1-8.6-9.6-10.9-15.3c-8.5-21.1-16.1-42.5-24-63.7c-0.4-1-0.5-2-0.8-3
			c1,0.5,2.2,0.9,2.8,1.7c18.2,23.1,36.3,46.2,54.5,69.3c7.5,9.6,15.2,19,22.7,28.6c1.3,1.6,1.8,3.8,2.7,5.8
			c-4.9-1.1-10.5-0.9-14.5-3.5c-10.4-6.6-20.1-14.4-30.1-21.7C579,1099.3,578.1,1099.9,577.2,1100.5z"/>
		<path class="st1" d="M419.8,845.1c-20.2,10.9-39.5,24.4-60.8,32.1c-29.5,10.7-60.6,17-91,25.1c-1,0.3-2.2,0.2-3.3,0.3
			c1.3-1.1,2.5-2.8,4-3.2c24.6-6.6,49.3-12.6,73.8-19.7c19.6-5.7,39.1-11.9,58.1-19.4C407.8,857.4,413.4,850.2,419.8,845.1
			L419.8,845.1z"/>
		<path class="st1" d="M518.7,975c4.5-3,10-5.2,13.3-9.2c2.1-2.5,1-7.7,1.3-11.7c3.6,1.3,10.4,3.4,10.2,3.9
			c-1.5,6.7-2,15.8-6.6,19.1c-7.7,5.6-18.1,7.3-27.2,11c-1.6,0.6-2.5,2.8-3.8,4.2c-0.7-2.9-1.4-5.8-2.2-8.7c1.9-0.2,3.9,0,5.7-0.5
			c7.4-2.2,14.8-4.7,22.2-7c0.1-0.2,0.1-0.3,0.2-0.5c-0.1,0.1-0.2,0.3-0.2,0.4C527.4,975.7,523.1,975.3,518.7,975z"/>
		<path class="st1" d="M721.6,1014.5c17.6,12.6-0.8,17-5.5,24.5c-1.4,1-2.9,2-4.3,3.1h0.1c-5.7,0-11.3,0-17,0
			c7.2-4.2,15.5-7.3,21.1-13c2.6-2.7-0.3-10.5,0.1-15.9c0.2-2.5,2.5-4.8,3.8-7.1c0.4,2.7,0.9,5.4,1.3,8.1
			C721.3,1014.4,721.4,1014.5,721.6,1014.5z"/>
		<path class="st1" d="M587.7,968.8c8.7,2.8,17.4,5.7,26.1,8.5c2.4,4,4.8,7.9,7.2,11.9c-3.7-0.8-7.5-1.5-11.2-2.3
			c-0.2-0.1-0.4-0.3-0.5-0.4c0.1,0.2,0.3,0.4,0.4,0.5c-4.9-1.4-9.9-2.7-14.8-4.1c-3-3.4-6-6.8-9-10.3
			C586.5,971.4,587.1,970.1,587.7,968.8z"/>
		<path class="st1" d="M455.7,830c5.3-3.2,10.6-6.4,15.8-9.6c-1.2,5.2-2,10.5-3.7,15.5c-0.3,0.7-4.8-0.6-6.5,0.4
			c-3,1.9-5.5,4.6-7.7,7.5c-1.6,2.1-2.4,4.8-3.5,7.3c-0.1-3.6-0.7-7.4-0.1-10.9c0.5-2.3,2.8-4.3,4.4-6.4c-6.6,0.9-13.3,1.3-19.7,2.8
			c-3.8,0.9-7.2,3.7-10.8,5.6c-0.2-0.1-0.3-0.3-0.5-0.4C434.3,837.9,445,833.9,455.7,830c0.3,0.4,0.6,0.9,0.9,1.4
			c0.2-0.2,0.4-0.4,0.5-0.5C456.7,830.6,456.2,830.3,455.7,830z"/>
		<path class="st1" d="M509.4,771.3c0.9,16.6,1.8,33.3,2.6,50c0,0.2-1.4,0.4-2.2,0.7c-0.1-0.3-0.2-0.6-0.3-0.9
			c-0.6-1.3-1.2-2.6-1.8-3.9c-0.9-3-1.7-6-2.6-8.9c-0.2-1-0.3-2.1-0.5-3.1c-0.1-0.6-0.3-1.3-0.4-1.9c-0.1-6-0.2-11.9-0.3-17.9
			c0.9-3.1,1.8-6.2,2.7-9.4C507.6,774.3,508.5,772.8,509.4,771.3z"/>
		<path class="st1" d="M504,785.2c0.1,6,0.2,11.9,0.3,17.9c3.1-14.7,6.2-29.4,9.2-44.1c-1.3,4.1-2.7,8.2-4,12.3
			c-0.9,1.5-1.8,3-2.8,4.6C505.8,779,504.9,782.1,504,785.2z"/>
		<path class="st1" d="M396.8,862.5c-1.7,0.8-3.8,2.6-5.3,2.2c-2.3-0.6-5-2.3-5.9-4.2c-0.6-1.3,1.7-3.9,2.8-5.9
			C390.9,857,393.6,859.4,396.8,862.5z"/>
		<path class="st1" d="M157.9,1202c-1.5-4.6-3-9.2-4.4-13.9C155,1192.7,156.5,1197.4,157.9,1202z"/>
		<path class="st1" d="M419.7,845c1.3-1.1,2.6-2.1,3.9-3.2c0.1,0.1,0.3,0.3,0.5,0.4C422.6,843.2,421.2,844.1,419.7,845L419.7,845z"
			/>
		<path class="st1" d="M190.7,1060c-0.3-1.3-0.6-2.5-0.8-3.8c0-0.1,0.7-0.3,1.1-0.5C190.9,1057.2,190.8,1058.6,190.7,1060
			L190.7,1060z"/>
		<path class="st1" d="M624.9,992.7c-1.1-1-2.2-2-3.3-2.9C622.7,990.7,623.8,991.7,624.9,992.7z"/>
		<path class="st1" d="M507.7,817.1c0.6,1.3,1.2,2.6,1.8,3.9C508.9,819.7,508.3,818.4,507.7,817.1z"/>
		<path class="st1" d="M504.6,805c0.2,1,0.3,2.1,0.5,3.1c-0.7-0.6-1.4-1.2-2-1.8C503.6,805.9,504.1,805.5,504.6,805z"/>
		<path class="st1" d="M508.6,995.4c1.1,0.3,2.1,0.6,3.2,0.9C510.7,996,509.6,995.7,508.6,995.4z"/>
		<path class="st1" d="M315.7,1193c0.1-0.1,0.1-0.2,0.2-0.3C315.8,1192.8,315.8,1192.9,315.7,1193L315.7,1193z"/>
		<path class="st1" d="M846.6,914.8c5.7-23.6,11.4-47.2,17.1-70.8c0.3-1.4,1-2.7,1.4-4c0.6,0.5,1.7,0.9,1.9,1.5
			c9.3,36.9,44.8,36,70.7,48.3c21.6,10.3,45.3,16.2,66.7,26.8c9.5,4.7,15.7,16.2,23.4,24.6c-43.6-13.4-87.2-26.8-130.8-40.1
			c-2.7-0.8-5.7-0.9-8.5-1.3c2.2,1.3,4.4,2.7,6.5,4c0.6,0.4,1.2,0.8,1.8,1.2l0.1-0.1c-11.7,25.5-23.4,51.1-35.1,76.6
			c-5.6,8.1-11.2,16.3-16.9,24.3c-1.2,1.6-3,2.7-4.6,4.1c0.3-1.4,0.3-2.9,0.9-4.3c1.2-2.9,2.6-5.7,4-8.5c-2.6,2.2-5.3,6.2-7.9,6.1
			c-4.6-0.2-9-2.8-13.5-4.5c1-1.4,1.9-2.8,3-4.1c5.6-6.6,11.7-12.8,16.7-19.8c1.6-2.2,0.5-6.4,0.7-9.7c0-1-0.1-2.1,0.3-2.8
			c3.3-6.2,6.3-12.5,10.1-18.4c4.1-6.4,8.2-12.9,13.4-18.2c4.4-4.5,11.3-6.6,15.6-11.2c2.1-2.2,1.3-7.7,1-11.6
			c-0.4-5.5-1.6-10.9-2.6-16.4c-0.5-2.5-1.4-4.9-2.1-7.4c-2.7,1.3-6.2,1.9-7.9,4C863.3,893.5,855,904.2,846.6,914.8z M897.3,900.2
			c3.8-1.4,4.7-1.7,5.5-2.1c-3.9-4.8-7.7-9.5-11.7-14.2c0,0-2.2,1.5-2.1,1.7C891.8,890.6,894.6,895.5,897.3,900.2z M848.2,991.8
			c-0.2-0.1-0.5-0.2-0.7-0.3c-0.1,0-0.3,0.3-0.2,0.3c0.1,0.2,0.3,0.4,0.5,0.6C847.9,992.3,848.1,992.1,848.2,991.8z"/>
		<path class="st1" d="M825.7,1052.9c2.2,0.5,4.3,1.1,6.5,1.6c-5.1,5.8-9.4,14.9-15.7,16.6c-8.2,2.1-17.9-1.7-27-2.9
			c1.4-1.7,2.4-4,4.2-4.9c3.4-1.8,7.3-2.8,11-4.1c1.1-0.4,2.2-0.8,3.4-1.3c-14-10.2-30.8-31-41.5-28.3c-18,4.7-31.3,25.5-48.3,37.1
			c-10.8,7.4-24.5,10.9-37.3,15c-5.8,1.9-12.5,1-18.9,1.3c0.5-2,0.9-4,1.4-6c23.1-16,46.3-32,69.5-47.9c-3.8-4.9-7.6-9.7-11.4-14.6
			c-0.2,0-0.3-0.1-0.4-0.3c1-1.1,1.9-2.5,3.1-3.2c17.6-11.1,34.8-23,53.2-32.6c6.8-3.6,16.5-1.5,24.9-2.1c1.1-0.1,2.2-0.3,3.3-0.4
			c0.7,1.1,1.3,2.2,2,3.3c2.5,0,5.8,1,7.2-0.2c2.3-2,3.2-5.5,4.9-8.3c14-22.4,28.1-44.8,42.3-67.1c0.5-0.7,1.9-0.8,2.9-1.2
			c-0.2,1.7-0.1,3.4-0.6,5c-1.2,3.7-2.1,7.6-4,10.9c-15.4,27.3-31.2,54.4-46.4,81.8c-3.3,6-6.5,12.9-6.6,19.5
			c-0.1,4.4,5.4,8.9,8.3,13.3c-0.1,0.1-0.1,0.2-0.2,0.3c0.1-0.1,0.1-0.2,0.2-0.3c0.8,0.7,1.6,1.4,2.4,2.1c-0.2,0.3-0.5,0.7-0.7,1
			c-3.7-0.1-8.8,1.3-10.9-0.6c-3.4-3-4.3-8.5-7.2-12.3c-1.3-1.7-4.8-1.9-7.4-2.6c-0.4-0.1-1.8,1.7-1.6,2c3.4,7.1,6.9,14.1,10.4,21.1
			c2.8,2.4,5.5,4.7,8.3,7.1c0.6,1.9,1.3,3.9,1.9,5.8c1-0.7,1.9-1.4,2.9-2.1C817.8,1054.1,821.7,1053.5,825.7,1052.9z"/>
		<path class="st1" d="M641.7,1111.9c4.3,0.4,8.6,0.8,12.9,1.1c2.1,3,4.1,6,6.2,9.1c-7.3,5.5-21.3,7.6-10.9,22.1
			c0.3,0.4-2.5,3.1-3.9,4.8C628.1,1138.5,633.9,1125.3,641.7,1111.9z"/>
		<path class="st1" d="M1170.8,1107c0,0.7,0.1,1.4,0.1,2c-5.2,7.1-10.3,14.3-15.5,21.4c-0.8-1.6-2.4-3.3-2.3-4.9
			c0-1.3,2-2.6,3.1-3.8c5.9-6.9,11.8-13.8,17.7-20.6c-0.5,1.3-1,2.6-1.5,3.9C1171.8,1105.6,1171.3,1106.3,1170.8,1107z"/>
		<path class="st1" d="M1156.7,1054c0.1,0.1,0.2,0.1,0.4,0.2C1157,1054.1,1156.9,1054.1,1156.7,1054L1156.7,1054z"/>
		<path class="st1" d="M660.9,1198.9c-1.1,2.7-2,4.8-2.9,6.9c-1.1-1.9-2.8-3.7-3-5.7c-0.1-1.5,1.9-3.1,3-4.6
			C658.9,1196.6,659.8,1197.7,660.9,1198.9z"/>
		<path class="st1" d="M846.8,875c-0.3,1.4-0.7,2.8-1,4.2c-0.7,0.9-1.4,1.8-2.1,2.7c-13.5-19.9-28.6-39-39.7-60.2
			c-5.7-10.9-4.3-25.5-6.1-38.5c5.4,3.7,13.1,6.1,15.6,11.2c7.5,15,12.4,31.3,19.4,46.6c3.7,8.2,9.7,15.4,14.6,23
			c0.1,0.3,0.2,0.6,0.3,0.9c-0.2,2.3-0.3,4.6-0.5,6.9C847.2,873,847,874,846.8,875z M812.6,802.2c-1.2,3.1-2,4.2-1.8,4.7
			c2.6,4.9,5.4,9.7,8.1,14.6c0.4-0.5,1.2-1.1,1.1-1.4C818,814.8,815.7,809.5,812.6,802.2z"/>
		<path class="st1" d="M843.7,882c0.7-0.9,1.4-1.8,2.1-2.7c-6.1,14.2-10.5,29.6-18.9,42.3c-10,15.1-23.4,27.9-35.3,41.6
			c-0.3-0.1-0.7-0.2-1-0.4c1.6-2.9,3.1-6,5-8.8c4-5.8,8.3-11.4,12.4-17.1c-4.7,1.6-9.5,3.3-14.2,4.9c13.4-13.9,26.8-27.8,40.2-41.6
			C837.2,894.1,840.5,888.1,843.7,882z"/>
		<path class="st1" d="M847.9,865c-0.1-0.3-0.2-0.6-0.3-0.9c0.6-0.6,1.2-1.3,1.9-1.9C848.9,863.2,848.4,864.1,847.9,865z"/>
		<path class="st1" d="M833,819.6c-0.3-0.1-0.7-0.2-0.7-0.4c-0.1-0.2,0.2-0.5,0.3-0.7c0.3,0.1,0.6,0.2,0.7,0.3
			C833.3,819.1,833.1,819.4,833,819.6z"/>
		<path class="st1" d="M830.3,814.3c-0.3,0.1-0.6,0.3-0.8,0.3c-0.2-0.1-0.2-0.5-0.3-0.7c0.3-0.1,0.6-0.3,0.8-0.3
			S830.2,814,830.3,814.3z"/>
		<path class="st1" d="M805.8,975.9c-1.8-2.5-3.5-5-5.3-7.5c15.3-17.9,30.6-35.7,46-53.6c-7.4,11.3-15.4,22.3-22.2,33.9
			c-4.2,7.2-6.4,15.5-10,23c-1.4,2.8-4.3,4.9-6.5,7.4C807.1,978.1,806.4,977,805.8,975.9z"/>
		<path class="st1" d="M544.7,207.6c-0.3,2.1-0.7,4.3-1,6.4c-5,4.3-10,8.7-15,13c-3.2,0.7-6.3,1.3-9.5,2
			C527.7,221.9,536.2,214.7,544.7,207.6z M538,212.4c-0.1,0-0.3-0.1-0.4-0.1c0,0.1-0.1,0.3-0.1,0.3c0.1,0.1,0.3,0.1,0.4,0.2
			C537.9,212.7,538,212.5,538,212.4z"/>
		<path class="st1" d="M451.6,552.2c-0.7-1.5-1.4-2.9-2-4.4C450.2,549.3,450.9,550.7,451.6,552.2z"/>
		<path class="st1" d="M767.6,966.1c-7,5.8-14.1,11.5-21,17.4c-1.6,1.3-2.6,3.3-3.8,5c2.3-0.3,4.7,0,6.8-0.9
			c2.9-1.3,5.5-3.3,8.3-4.9c0.1-0.1,0.9,1.1,1.4,1.7c-3.1,2.1-6.1,4.4-9.3,6.3c-3.4,2-7.1,3.5-10.6,5.2c1.3,0.5,2.6,1.1,3.9,1.6
			c-7.8,2.9-15.6,5.7-23.4,8.6c9.8-9.2,19.2-18.7,29.4-27.5C754.7,973.8,761.4,970.2,767.6,966.1z"/>
		<path class="st1" d="M585.9,972.8c3,3.4,6,6.8,9,10.3c8.2,5.5,16.6,10.7,24.5,16.6c4,3,7,7.3,10.5,11c-6.1-0.8-14.3,0.5-18-2.9
			c-9.9-9.1-18-20.3-26.7-30.8C584.6,976.1,585.6,974.2,585.9,972.8z"/>
		<path class="st1" d="M548,962.3c-0.8,0.5-1.1,0.7-1.5,1c-0.2-0.3-0.5-0.7-0.5-1c0-0.2,0.3-0.7,0.5-0.7
			C546.8,961.6,547.2,961.9,548,962.3z"/>
		<path class="st1" d="M737.5,1079.2c-4.5-2.2-7.1-3.4-9.6-4.6c3.2-2.8,6-6.3,9.6-8.4c10.3-5.9,20.8-11.4,31.4-16.8
			c3.8-1.9,8.1-3,12.1-4.4c-1.8,1.5-3.5,3-5.3,4.4C763,1059.4,750.3,1069.3,737.5,1079.2z"/>
		<path class="st1" d="M865.7,1042c-0.1-0.1-0.2-0.1-0.3-0.2C865.5,1041.9,865.6,1042,865.7,1042L865.7,1042z"/>
		<path class="st1" d="M787.7,391.5c6,13.4,12.8,26.4,17.5,40.2c1.3,3.9-2.8,13.9-5.5,14.3c-11.4,1.7-23.2,1.8-34.7,0.7
			c-13.3-1.2-33.6,0.2-38.4-7.4c-13.7-21.7-16.9,0.8-24.5,2.9c-3.4,0.9-6.8,1.7-10.2,2.5c0.7-1.9,1.4-3.8,2-5.7
			c-6.3-1-15.5,0.2-18.2-3.4c-5.3-7.2-9.6-17.2-9.3-25.8c0.3-6.6,7-15,13.2-18.7c8.6-5.2,19.3-9,29.3-9.4
			c12.5-0.5,25.1,2.9,37.6,4.8c1.5,0.2,2.9,1.5,4.3,1.3c7.2-0.6,14.5-1.5,21.7-2.3C777.7,387.5,782.7,389.5,787.7,391.5z
			 M692.2,388.2c0.2,0.1,0.5,0.3,0.7,0.4c0.1,0,0.3-0.3,0.3-0.3c-0.1-0.2-0.3-0.5-0.4-0.7C692.5,387.7,692.3,387.9,692.2,388.2z
			 M774.7,390.7c0.1-0.1,0.2-0.1,0.3-0.2c-0.1-0.1-0.2-0.2-0.3-0.2s-0.2,0.1-0.3,0.2C774.5,390.6,774.6,390.7,774.7,390.7z"/>
		<path class="st1" d="M696.4,548.9c-21.4,9-42.3,19.2-64.2,26.6c-17.8,6-43.1-11.6-41.1-27.3c0.6-5,4.9-11.4,9.3-13.5
			c4.1-2,10.5,1.1,16,1.4c15.4,0.7,31,0.3,46.3,2c11.5,1.3,22.7,5.2,34.1,8C696.6,547,696.5,547.9,696.4,548.9z"/>
		<path class="st1" d="M689.6,622.2c-0.6-0.1-1.3-0.2-1.9-0.3c-9.1,0-18.3-0.4-27.4,0.2c-20.7,1.3-41.3,2.9-61.9,4.7
			c-8,0.7-15.9,2.1-23.9,3.2c0.6-3.3,0.4-9,2-9.6c9.3-3.2,18.9-6.7,28.6-7.1c12.3-0.5,24.6,2.9,36.9,2.9c21.9-0.2,43.9-1.9,65.8-2.4
			c1.9,0,3.8,3.6,5.8,5.6c-2.9,1.9-5.7,5.3-8.6,5.4C699.9,624.9,694.8,623.1,689.6,622.2z"/>
		<path class="st1" d="M506,302.7c1.3,0.5,2.5,0.9,3.7,1.4c-1.5,0.4-3,1-4.5,1c-1.2,0-2.5-0.7-3.7-1.1
			C502.9,303.5,504.4,303.1,506,302.7z"/>
		<path class="st1" d="M587.7,925l-0.1-0.1L587.7,925z"/>
	</g>
	<g>
		<g>
			<defs>
				<circle id="SVGID_1_" cx="633.5" cy="633.5" r="633.5"/>
			</defs>
			<clipPath id="SVGID_2_">
				<use xlink:href="#SVGID_1_"  style="overflow:visible;"/>
			</clipPath>
			<rect y="0" class="st2" width="1267" height="1267"/>
		</g>
		<g>
			<defs>
				<circle id="SVGID_3_" cx="633.5" cy="633.5" r="633.5"/>
			</defs>
			<clipPath id="SVGID_4_">
				<use xlink:href="#SVGID_3_"  style="overflow:visible;"/>
			</clipPath>
			<g class="st3">
				<path class="st4" d="M256.6,898.9c29.7-11.2,59.7-21.6,88.9-33.9c32-13.5,63.2-28.9,94.9-43c8.4-3.7,20.3-3.2,25.9-9.1
					c11.2-11.8,18.9-26.9,28.5-40.2c6.2-8.6,13.2-16.5,19.8-24.7c-0.4,3.7-0.7,7.3-1.1,11c-3.1,14.7-6.2,29.4-9.2,44.1
					c0.1,0.6,0.3,1.3,0.4,1.9c-0.5,0.4-1,0.9-1.6,1.3c0.7,0.6,1.4,1.2,2,1.7c0.9,3,1.7,6,2.6,8.9c0.6,1.3,1.2,2.6,1.8,3.9
					c0.1,0.3,0.2,0.6,0.3,0.9c1.4,3,2.8,6,4.2,8.9c6.3,10.2,12.5,20.3,18.7,30.5c0.6,0.9,0.9,2,1.4,2.9c-1.2-0.1-3,0.3-3.4-0.4
					c-11.7-16.1-23.6-32.1-34.8-48.6c-2.7-3.9-2.9-9.6-4.2-14.4c-1.8,3.2-3.7,6.3-5.2,9.6c-1.6,3.4-3,7-4.4,10.5
					c-4.4,10.7-14.1,22.5-12.3,32.1c6.4,33.7,16.7,66.6,25.6,99.8c0.4,1.5,1.9,2.8,2.9,4.1c-0.1-1.8,0.3-3.7-0.3-5.3
					c-4.4-13-9.1-26-13.6-39c-0.5-1.6-0.7-3.3-1.1-5c1.2,1.6,2.2,3.2,3.5,4.7c5.6,6.2,11.2,12.4,16.9,18.5c4,4.3,9,7.9,12.1,12.7
					c1,1.6-2.8,5.9-3.9,9.2c-0.8,2.6-0.8,5.4-1.2,8.2c2.7,4.7,5.3,9.3,8,14c4.3,0.3,8.7,0.7,13,1l0,0c-7.4,2.4-14.8,4.8-22.2,7
					c-1.8,0.5-3.8,0.4-5.7,0.5c0.7,2.9,1.4,5.8,2.1,8.7c0.9,1,1.7,2.1,2.6,3.1c1.1,0.3,2.1,0.6,3.2,0.9c9.3-4.7,18.6-9.4,27.9-14.1
					c2,0.7,3.9,1.6,6,1.9c9.1,1.5,20.7-0.2,26.9,4.9c10.2,8.3,19.4,19.9,24.6,31.9c7.8,18.3,11.9,38.1,17.6,57.3
					c0.7,2.3,2,4.4,3.1,6.5c0.1,0.1,1.2-0.2,1.2-0.3c0.1-1.1,0.3-2.2,0-3.2c-1.7-5.6-3.7-11.1-5.2-16.7c-0.7-2.5-0.4-5.4-0.5-8
					c4.4,3,9.7,5.3,13.1,9.1c6.3,7.1,11.6,15.2,17.3,22.9c3.8-3.9,7.1-8.4,11.4-11.6c22.1-16.4,2.2-30.9-1.9-46.1
					c-9.5-12.7-18.9-25.3-28.4-38c-1.1-1-2.2-2-3.3-2.9c-0.2-0.2-0.4-0.4-0.5-0.6c-2.4-4-4.8-7.9-7.2-11.9c1-0.4,2-0.9,2.9-1.3
					c1.6-2,3.3-4.1,4.9-6.1c0.3-0.3,0.6-0.6,0.9-1c0.3,0,0.6,0.1,0.9,0.1c7,11.9,14.3,23.7,21,35.7c11.2,20,17.5,46.5,50.3,37.3
					c5.7,0,11.3,0,17,0c-1.6,1.3-3.1,2.8-4.8,4c-15.6,10.4-31.2,20.6-46.9,31c-13.4,24.6-27,49.1-39.7,74.1c-1.9,3.7,1.4,9.9,2.2,15
					l0,0c-1.8,2.1-3.6,4.3-5.4,6.4c-0.7,0.8-1.7,1.4-2.5,2.1c0.3-3.1,0.8-6.2,0.8-9.3c0-1.6-0.9-3.1-1.3-4.7c-1,0.5-2.8,0.9-2.8,1.5
					c-3,35-5.9,70-8.7,105.1c-90.3,0-180.7,0-271,0c1.1-1.2,2-3.3,3.3-3.6c3.6-0.7,7.3-0.7,11-0.9c-3.5-0.5-7.7,0.1-10.3-1.7
					c-3.3-2.2-6.7-6.1-7.5-9.8c-1.5-6.6-0.3-13.8-1.8-20.4c-3-12.7-7-25.1-10.7-37.6c0.1-0.1,0.1-0.2,0.2-0.3
					c-0.1,0.1-0.1,0.2-0.2,0.3c-2.6-4.6-7-9.1-7.5-14c-1.1-10.9,0.4-22.1-0.4-33.1c-1.3-17.4-2.9-34.9-6.1-52
					c-1.2-6.2-7.4-11.5-11.3-17.3c-0.8,2.2-1,5.1-2.6,6.6c-2.9,2.9-7.4,4.3-9.7,7.5c-2.2,3-2.8,7.4-3.5,11.3
					c-1.1,6.4-2.3,12.8-2.2,19.2c0,1.8,4.7,3.4,7.2,5.1c3.3,2.2,8.3,3.9,9.4,6.9c3,8.3,4.7,17.1,6.2,25.8c1.3,7.6,1.9,15.3,2.5,23
					c1.4,20,2.6,40.1,3.8,60.1c0.1,2-1,4.1-1.5,6.1c-1-1.1-2.1-2.1-2.9-3.4c-2.1-3.1-3.9-6.4-6.3-9.3c-0.8-0.9-2.9-0.7-4.4-1
					c1.8,10.8,3.6,21.5,5.4,32.3c-21,0-42,0-63,0c0.9-7.3,3.3-14.7,2.5-21.8c-2.4-20.7-6.4-41.2-9.2-61.8
					c-5.4-38.8-10.3-77.7-15.6-116.5c-0.4-2.9-2.2-5.8-4.1-8.2c-0.6-0.8-4.7-0.2-4.7-0.1c-0.3,6,2.1,20.7-5.5,1.5
					c-0.1-0.2-0.9-0.1-1.4-0.1c0.1-1.4,0.2-2.9,0.3-4.3c-0.4,0.2-1.1,0.4-1.1,0.5c0.2,1.3,0.5,2.6,0.8,3.8
					c3.2,13.8,6.5,27.6,9.6,41.3c0.2,0.9-0.3,2.8-0.8,2.9c-3.6,0.7-7.2,1.1-10.8,1.5c-0.1,0-0.1-1.7-0.5-2.5
					c-1.9-3.8-3.9-7.6-5.9-11.4c-0.4-0.8-1.4-2.1-1.1-2.4c2.6-3.5,5.5-6.8,8.1-10.3c0.3-0.4-0.5-2.4-0.8-2.5
					c-1.5-0.1-3.1,0.4-4.6,0.4c-1.7-0.1-3.5-0.5-5.1-1c-0.3-0.1-0.4-1.9,0-2.4c1.9-2.6,4.1-4.9,6.1-7.4c-1.7,0.7-4.6,2.2-4.8,1.9
					c-4-6.4-8.1-12.8-11.3-19.6c-2.4-5-3.6-10.5-5.3-15.7c-0.2,3.1-0.9,6.2-0.6,9.1c0.5,3.9,1.9,7.6,2.8,11.5
					c11.3,44.9,22.6,89.7,34,134.6l0,0c-5.5,3.7-15.8,7.7-15.6,11.1c0.6,8.2,6.5,15.9,9.3,24.1c4.9,14.5,8.9,29.2,13.3,43.9
					c-7,0-14,0-21,0c-5.1-12-10.1-24-15.2-35.9c-4-9.3-8.1-18.5-12.1-27.8c-0.1-0.5-0.3-0.9-0.4-1.4c-1.5-4.6-3-9.2-4.4-13.9
					c-0.1-0.4-0.2-0.7-0.3-1.1c3.5-8.5,8.6-16.8,10.1-25.7c1.7-9.8,0.9-20.3-0.3-30.3c-2.4-19.5-4.8-39-9.2-58.1
					c-1.5-6.7-8.9-12-13.6-17.9c-2.2,5.8-3.9,11.8-6.8,17.2c-0.8,1.4-5.1,1.3-7.8,1.2c-2.3-0.1-4.6-1.1-6.9-1.7
					c4.1-10.8,9.4-21.4,11.8-32.6c1.9-9,0.1-18.8,0-28.2c5.8-12.1,9.4-26.2,18-35.8c14.2-15.9,31.1-29.7,48-42.8
					c13-10,28-17.6,42-26.3C244.6,903.6,250.6,901.3,256.6,898.9z M424,842.3c3.6-1.9,7-4.7,10.8-5.6c6.4-1.6,13.1-2,19.7-2.8
					c-1.5,2.1-3.9,4.1-4.4,6.4c-0.7,3.5,0,7.2,0.1,10.9c1.1-2.4,1.9-5.2,3.5-7.3c2.2-2.8,4.7-5.6,7.7-7.5c1.7-1.1,6.2,0.3,6.5-0.4
					c1.7-5,2.6-10.3,3.7-15.5c-5.3,3.2-10.6,6.4-15.8,9.6l0,0c-10.7,3.9-21.5,7.9-32.2,11.8c-1.3,1.1-2.6,2.1-3.9,3.2
					c-6.3,5.2-11.9,12.4-19.2,15.3c-19,7.5-38.5,13.7-58.1,19.4c-24.4,7.1-49.2,13.1-73.8,19.7c-1.5,0.4-2.7,2.1-4,3.2
					c1.1-0.1,2.2,0,3.3-0.3c30.4-8.1,61.5-14.4,91-25.1c21.4-7.7,40.6-21.2,60.8-32.1C421.2,844.1,422.6,843.2,424,842.3z
					 M554.1,1083.1c0.5-2.7,1.9-5.3,1.1-6.4c-3-4.2-6.9-7.6-9.9-11.7c-20-27.1-40.3-54-59.4-81.7c-9.6-13.9-16.5-29.7-25-44.4
					c-1.2-2.1-4.5-3.1-6.8-4.5c-0.7,1.8-2.5,4-1.9,5.2c4.7,10.6,10.4,20.7,14.8,31.4c7.7,18.4,15.1,36.8,21.9,55.5
					c3.8,10.6,2.7,26.7,9.9,31.7C514.6,1069.1,534.2,1074.5,554.1,1083.1z M577.2,1100.5c0.9-0.6,1.8-1.2,2.6-1.8
					c10,7.3,19.6,15.1,30.1,21.7c4,2.5,9.6,2.4,14.5,3.5c-0.9-1.9-1.4-4.1-2.7-5.8c-7.5-9.6-15.2-19-22.7-28.6
					c-18.2-23.1-36.3-46.2-54.5-69.3c-0.6-0.8-1.9-1.1-2.8-1.7c0.3,1,0.4,2,0.8,3c7.9,21.3,15.5,42.7,24,63.7
					C568.6,1090.9,573.5,1095.5,577.2,1100.5z M396.8,862.5c-3.2-3-5.8-5.5-8.4-7.9c-1,2-3.4,4.6-2.8,5.9c0.9,2,3.6,3.7,5.9,4.2
					C393,865,395,863.3,396.8,862.5z"/>
				<path class="st4" d="M874.7,1267c-59.7,0-119.3,0-179,0c-0.3-7.6-1.1-15.3-0.6-22.9c0.1-1.9,6.5-4.9,6.3-5.2
					c-2.6-4.5-5.7-8.8-9.2-12.8c-1.2-1.4-3.8-1.6-5.8-2.3c0.2-0.5,0.5-1,0.7-1.6c2-6.8,5.4-13.5,5.4-20.3c0-7.3-4.1-14.6-4.6-22.1
					c-0.6-11.2-0.1-22.6,1.2-33.7c0.2-1.6,7.4-2.2,11.1-3.8c1.1-0.5,1.6-4,2.1-4c3.1,0.5,6.4,0.9,8.9,2.6c3.1,2.1,5.2,7.3,8.2,7.8
					c9.1,1.5,18.5,1.4,27.8,1.7c1.5,0,4-0.9,4.2-1.9c1.1-5,1.6-10.1,2.4-15.2c-1.5,1.4-3,2.8-4.7,4c-1.5,1.1-3.2,1.9-4.8,2.9
					c0.4-2.8,0.3-8,1.2-8.1c13.6-2.5,16.2-7.5,4.5-16.7c-0.2-0.1,0.3-1.8,0.9-2.1c12.7-7.7,24.9-17.1,38.6-22.1
					c5.4-2,14.4,5.6,21.7,8.8c-4.6,4.5-11.2,8.2-13.2,13.6c-2.8,7.6-2.1,16.6-2.9,24.9c-0.2,1.6-1.2,3.2-1.1,4.7
					c0.5,8,1.2,15.9,2.1,23.9c0.1,0.7,2.3,1.8,2.3,1.8c2.1-2.6,3.9-5.5,6.2-8c2.2-2.4,5.4-4.1,7-6.8c5.2-8.9,10-18,14.7-27.2
					c0.5-0.9-0.2-3-1-4c-0.7-0.8-3.6-0.9-3.5-1.1c0.2-2,0.8-3.9,1.3-5.9c3.1,3.4,6.7,6.5,9.1,10.3c2,3.2,2.4,7.4,3.5,11.1
					c2.9-2.3,5.9-4.6,8.7-7c1.4-1.2,2.6-2.6,3.9-4c0.2,1.6-0.2,3.7,0.7,4.7c1.8,2,4.8,5.1,6.3,4.6c12.2-3.7,25.5-5.9,35.6-12.9
					c8.2-5.6,12.3-17.2,18.3-26.1c0.3-0.5,0.9-0.8,1.4-1.2c5.7-3.7,11.5-7.4,17.2-11c6.8-4.3,13.8-8.3,20.5-12.8
					c3.9-2.6,7.3-5.9,10.8-9.1c0.4-0.4,0-1.8-0.1-2.8c-3.5,0.7-7.1,1.6-10.6,2.1c-1.7,0.3-3.4,0-5.1,0c0.5-1.4,1.1-2.9,1.6-4.3
					c2.4-6,5.2-12,6.9-18.2c0.3-1.1-5.4-5.3-5.9-4.9c-9,6.8-17.6,14-26.3,21.2c-0.8,0.7-1.3,1.7-2.1,2.3c-17,11.7-34.1,23.3-51.1,35
					c-2.4,1.6-3.9,5.1-6.4,5.7c-12,2.9-24.2,5.2-36.4,7.7c-2.2,0.4-4.4,0.5-6.6,0.7c0.1-3.1-1.2-7.4,0.4-9.1
					c11.2-11.9,21.7-25.3,35.1-34.4c14.2-9.7,33-12.9,46.5-23.2c23.4-17.9,44.1-39.2,66.1-59c2.3-2.1,5.3-3.6,7.2-5.9
					c0.4-0.5-2.8-5.5-3.5-5.3c-8.4,2.3-17.2,4.3-24.9,8.2c-11.4,5.8-22.1,13.1-33.1,19.8l0,0c-0.8,0.1-1.7,0.1-2.4,0.4
					c-15.2,7-30.2,14.3-45.7,20.8c-2.5,1.1-6.7-1.8-10.1-2.9c1.2-2.2,2.1-4.8,3.8-6.4c11.7-10.6,23.8-20.8,35.3-31.7
					c1.5-1.4,0.4-6.2-0.3-9.2c-0.4-1.7-2.3-3.1-3.5-4.6c-1.4,2-2.6,4.4-4.3,6.1c-6.1,5.9-12.4,11.5-18.8,17
					c-0.1,0.1-2.4-2.3-3.7-3.6c0.2-0.8,0.4-1.6,0.6-2.4c11.7-25.5,23.4-51.1,35.1-76.6c27,7.7,53.7,16.7,81.1,22.7
					c59.6,13.1,107.2,44.4,145.1,91.4c-2.8-3.3,8.7,10.8,7.7,10.9c-27.5,89.7-238.3,198.6-239.7,200.4c-7.2,10-12.6,21.2-18.3,32.2
					C872.3,1263.5,874,1265.5,874.7,1267z"/>
				<path class="st4" d="M657.7,1147.8c4,3.4,8,6.9,12.1,10.2c1.3,1,3,1.3,4.5,2c-1,2-1.7,4.4-3.2,5.8c-2.5,2.4-8.2,4.5-8,6.1
					c1.5,9.6,4.2,19,6.7,28.4c0.7,2.7,2.1,5.2,3.1,7.8c-2,0.2-5.4-0.2-5.9,0.7c-2.8,6.2-6.8,12.6-7.1,19c-0.6,13,1,26.2,1.6,39.2
					c-19,0-38,0-57,0c2.7-28.8,5.3-57.5,8.1-86.3c0.1-1.2,0.8-2.3,1.2-3.4c0.4,0.3,1,0.6,1.2,1.1c2.3,6,4.4,12.1,6.7,18.1
					c0.3,0.7,1.5,1.5,2.2,1.4c0.9-0.1,2.4-1,2.5-1.7c0.4-3.2,0.1-6.6,0.7-9.7c1.2-6.4,1.8-13.3,4.7-19c3.3-6.4,9-11.6,13.6-17.4
					C649.6,1149.3,653.6,1148.6,657.7,1147.8z M660.9,1198.9c-1-1.2-2-2.3-2.9-3.4c-1.1,1.5-3.1,3.1-3,4.6c0.1,1.9,1.9,3.8,3,5.7
					C658.9,1203.7,659.8,1201.6,660.9,1198.9z"/>
				<path class="st4" d="M80.7,1267c2.3-11.9,4.7-23.9,7-35.8c1.6-8.3,1.7-17.2,5-24.7c1.6-3.5,12.8-3.8,13.2-6.6
					c0.9-6-3.4-12.6-3.5-18.9c-0.1-10.5,1-21,2.5-31.4c1-6.5,3.7-12.8,6-19c0.1-0.3,5.8,0.3,6.1,1.4c2.3,7.3,4.5,14.7,5.4,22.3
					c1.7,14.5,2.9,29.2,3.4,43.8c0.1,3.2-2.7,7.7-5.5,9.4c-2.2,1.3-6.5-0.7-9.9-1.2c3.7,2.8,7.9,5.2,10.9,8.6
					c7.5,8.3,14.5,17.1,21.6,25.8c0.2,0.2-0.7,1.8-1.1,1.8c-2.7,0-5.5-0.2-8.2-0.5c-4.6-0.6-9.1-1.4-13.6-2.1
					c1.2,5.3,1.4,11,3.9,15.6c2.4,4.5,7.1,7.7,10.7,11.5C116.7,1267,98.7,1267,80.7,1267z"/>
				<path class="st4" d="M82.7,1196c-4.4,21.7-8.9,43.4-13.2,65.1c-0.4,1.9,0.1,3.9,0.2,5.9c-0.7,0-1.3,0-2,0
					C72.7,1243.4,77.7,1219.7,82.7,1196z"/>
				<path class="st4" d="M849.4,862.2c0.1-2.8,0.3-5.5,0.4-8.3c-6.2-19-10.1-39.1-19.3-56.5c-5.8-11-19.5-17.9-29.7-26.6
					c34.1,14.8,51.3,44.7,71.6,73.6c12,17.1,34.8,29.4,55.3,37.4c73.7,28.6,152.3,47.8,204,115.1c7.5,9.7,14,20.1,21,30.1
					c-27.2-27-54-54.3-82-80.4c-2.7-2.5-12.6,2.9-19.2,4.7c-7.9-3.4-15.8-6.8-23.7-10.2c-7.7-8.4-13.8-19.9-23.4-24.6
					c-21.4-10.6-45.1-16.5-66.7-26.8c-25.8-12.3-61.4-11.4-70.7-48.3c-0.2-0.6-1.2-1-1.9-1.5c-0.5,1.3-1.1,2.6-1.4,4
					c-5.7,23.6-11.4,47.2-17.1,70.8l-0.2,0.1c-15.3,17.9-30.6,35.7-46,53.6c-3-1.7-5.9-3.5-8.9-5.2c11.9-13.8,25.4-26.6,35.3-41.6
					c8.4-12.7,12.7-28.1,18.9-42.3c0.3-1.4,0.7-2.8,1-4.2c0.2-1,0.4-2,0.6-3.1c0.2-2.3,0.3-4.6,0.5-6.9
					C848.4,864.1,848.9,863.2,849.4,862.2z"/>
				<path class="st4" d="M114.1,1075.1c-0.8,5.1-1,10.4-2.5,15.4c-5.4,19.1-11.2,38-16.9,57c-0.3,1-1.4,1.7-2.1,2.6
					C99.8,1125.1,106.9,1100.1,114.1,1075.1z"/>
				<path class="st4" d="M452.9,574.9c3.1,7.2,6.1,14.3,9.2,21.5C459,589.2,456,582,452.9,574.9z"/>
				<path class="st4" d="M1168.6,1055c-3.9-6.7-7.9-13.3-11.8-20C1160.7,1041.7,1164.6,1048.3,1168.6,1055z"/>
				<path class="st4" d="M1172.7,1068.1c3.3,3.6,6.6,7.3,10,10.9c-0.9-0.4-1.9-0.7-2.8-1.1l-0.1-0.1
					C1177.4,1074.6,1175.1,1071.3,1172.7,1068.1z"/>
				<path class="st4" d="M88.4,1172.6c-1.9,6.1-3.7,12.3-5.6,18.4C84.7,1184.9,86.5,1178.8,88.4,1172.6z"/>
				<path class="st4" d="M1156.8,1035c-1.2-2.1-2.5-4.3-3.7-6.4C1154.3,1030.7,1155.5,1032.9,1156.8,1035z"/>
				<path class="st4" d="M128.6,1019c-0.6,2.7-1.2,5.4-1.8,8.1C127.4,1024.4,128,1021.7,128.6,1019z"/>
				<path class="st4" d="M92.7,1155c-0.7,2.3-1.3,4.7-2,7C91.3,1159.7,92,1157.3,92.7,1155z"/>
				<path class="st4" d="M1178.7,1084c1.3-1,2.6-2,3.9-3c-1.4,1.6-2.8,3.1-4.2,4.7C1178.5,1085.1,1178.6,1084.6,1178.7,1084z"/>
				<path class="st4" d="M90.4,1164.6c-0.6,1.8-1.2,3.6-1.8,5.4C89.3,1168.2,89.9,1166.4,90.4,1164.6z"/>
				<path class="st4" d="M1170.5,1061c-0.5-1.5-0.9-2.9-1.4-4.4C1169.6,1058.1,1170,1059.5,1170.5,1061z"/>
				<path class="st4" d="M126.2,1028.7c-0.3,1-0.6,2.1-0.9,3.1C125.6,1030.8,125.9,1029.7,126.2,1028.7z"/>
				<path class="st4" d="M129.3,1013c-0.1,0.7-0.2,1.5-0.2,2.2C129.2,1014.4,129.3,1013.7,129.3,1013z"/>
				<path class="st4" d="M910.7,998c0.1,0.1,0.2,0.1,0.3,0.2C910.9,998.1,910.8,998.1,910.7,998L910.7,998z"/>
				<path class="st4" d="M156.4,1165.8c0.7,1.2,1.2,1.7,1.2,2.2c0,0.7-0.3,1.5-0.5,2.2c-0.4-0.4-1.2-0.8-1.3-1.4
					C155.7,1168.2,156.1,1167.4,156.4,1165.8z"/>
				<path class="st4" d="M122.3,1137.3c-0.3,0.1-0.6,0.3-0.8,0.2c-0.2-0.1-0.2-0.5-0.3-0.7c0.3-0.1,0.6-0.3,0.7-0.3
					C122.2,1136.6,122.2,1137,122.3,1137.3z"/>
				<path class="st4" d="M199.7,1188c0.1,0.1,0.3,0.1,0.4,0.2C200,1188.2,199.9,1188.1,199.7,1188L199.7,1188z"/>
				<path class="st4" d="M625.7,1153.5c0.2,0.2,0.4,0.4,0.5,0.6c0,0.1-0.2,0.4-0.2,0.3c-0.3-0.1-0.5-0.2-0.8-0.3
					C625.3,1154,625.5,1153.7,625.7,1153.5z"/>
				<path class="st4" d="M622.7,1166c0.1-0.1,0.1-0.2,0.2-0.4C622.8,1165.8,622.8,1165.9,622.7,1166L622.7,1166z"/>
				<path class="st4" d="M790.6,962.8c-15.8,11.6-31.6,23.1-47.5,34.7c-1.3-0.5-2.6-1.1-3.9-1.6c3.6-1.7,7.2-3.3,10.6-5.2
					c3.2-1.9,6.2-4.2,9.3-6.3c-0.5-0.6-1.3-1.8-1.4-1.7c-2.8,1.6-5.4,3.7-8.3,4.9c-2,0.9-4.5,0.6-6.8,0.9c1.3-1.7,2.2-3.7,3.8-5
					c6.9-5.9,14-11.6,21-17.4c8.7-8.1,17.4-16.1,26.2-24.2c4.7-1.6,9.5-3.3,14.2-4.9c-4.2,5.7-8.4,11.3-12.4,17.1
					C793.7,956.8,792.2,959.9,790.6,962.8z"/>
				<path class="st4" d="M531.7,976c0.1-0.1,0.2-0.3,0.2-0.4C531.9,975.7,531.8,975.9,531.7,976L531.7,976z"/>
				<path class="st4" d="M711.7,1042.1c1.4-1,2.9-2,4.3-3.1C714.6,1040.1,713.2,1041.1,711.7,1042.1z"/>
				<path class="st4" d="M455.7,830c0.5,0.3,1,0.6,1.5,0.9c-0.2,0.2-0.4,0.4-0.5,0.5C456.3,831,456,830.5,455.7,830L455.7,830z"/>
				<path class="st4" d="M894.9,903.8c0.6,0.4,1.2,0.8,1.8,1.2C896.2,904.6,895.5,904.2,894.9,903.8z"/>
			</g>
		</g>
		<g>
			<defs>
				<circle id="SVGID_5_" cx="633.5" cy="633.5" r="633.5"/>
			</defs>
			<clipPath id="SVGID_6_">
				<use xlink:href="#SVGID_5_"  style="overflow:visible;"/>
			</clipPath>
			<g class="st5">
				<path class="st6" d="M647.6,173.5c-4.9-1.1-9.8-2.2-14.7-3.4c-0.8,0.8-1.7,1.6-2.5,2.4c2.8,1.2,5.6,2.3,8.3,3.5
					c0.2,0.3,0.3,0.6,0.5,1c-6.6,0.7-13.2,1.7-19.8,2c-11.9,0.6-25.3-2.5-35.5,1.9c-14.3,6.1-26.2,17.5-39.1,26.7
					c-8.5,7.1-17,14.3-25.5,21.4c-0.4,2.7,0.2,6.4-1.4,7.9c-8.4,8.1-17.8,15.3-26,23.6c-6.6,6.7-11.8,14.9-18.2,21.9
					c-7,7.6-14.7,14.4-22,21.6c-9.9,17.3-19.5,33.1-9.7,55.7c4.5,10.5-6.9,26.9-5.1,39.9c3.2,23.7,12.2,46.5,15.9,70.2
					c1.7,10.4-3.7,21.9-5.6,32.9c-0.9,5.4-1,11-1.5,16.5c-0.3,3-0.5,5.9-0.8,8.9c0.7-10.2,1.4-20.4,2.1-30.6
					c0.4-13.2,2.1-26.4,1.1-39.4c-2.6-32.8-19.9-63.9-8.2-98.6c6.8-20,3.4-44.4,13-62.3c11.1-20.6,30.3-37.4,48.1-53.6
					c23.2-21.1,46.5-43.8,73.7-58.5c20.5-11,47-11.8,71.1-14.5c10.6-1.2,22,4.2,33,6.6C668.3,175.8,657.9,174.7,647.6,173.5z
					 M515.7,236.9c-1.7-1-2.6-1.8-2.9-1.7c-1.4,0.7-2.6,1.8-3.8,2.7c0.6,0.4,1.3,1.4,1.7,1.2C512,238.8,513.3,238,515.7,236.9z"/>
				<path class="st6" d="M256.6,898.9c-6,2.4-12,4.7-18,7.1C244.6,903.6,250.6,901.3,256.6,898.9z"/>
				<path class="st6" d="M623.5,969.1c10.9-1.5,22.4-1.5,32.6-5.1c8.5-3,17.4-8.8,22.8-15.9c8.5-11.4,13.8-25.2,21.4-37.5
					c5.7-9.3,11.4-19.3,19.4-26.2c8.3-7.2,19.5-11.1,29.4-16.4c1.2,2.8,1.8,6.2,3.8,8.3c1.7,1.7,5,1.9,7.6,2.6
					c1.4,0.4,2.9,0.5,4.3,0.8c-0.6,1.4-1.1,2.9-1.9,4.2c-2.2,3.6-4.4,7.1-6.6,10.6c3.3-0.6,6.8-2.1,9.9-1.5c2.5,0.5,6,3.2,6.4,5.5
					c0.6,2.8-1,6.5-2.6,9.2c-1.2,2.1-4,3.2-6.1,4.7c3.2,3.4,6,7.5,9.9,10c1.6,1,5.7-1.1,8.3-2.4c24.2-12.1,24-36.3,28.8-58.1
					c0.9-4.2,3.6-7.9,5.4-11.9c4,4.5,10.2,8.5,11.6,13.7c3.3,11.8,4.2,24.3,6.1,36.5c-13.4,13.9-26.8,27.8-40.2,41.6
					c-8.7,8.1-17.4,16.1-26.2,24.2c-6.2,4.1-12.9,7.7-18.5,12.5c-10.1,8.8-19.6,18.3-29.4,27.5h0.1c-1.3,2.4-3.6,4.7-3.8,7.1
					c-0.4,5.4,2.5,13.2-0.1,15.9c-5.6,5.7-13.9,8.8-21.1,13c-32.8,9.2-39.1-17.2-50.3-37.3C637.8,992.8,630.5,981,623.5,969.1z
					 M768,897.6c0.1-0.3,0.3-0.6,0.3-0.8c-0.1-0.2-0.5-0.2-0.7-0.3c-0.1,0.3-0.4,0.6-0.3,0.7C767.3,897.4,767.7,897.5,768,897.6z"/>
				<path class="st6" d="M657.7,1145c-1.5-0.1-3.1-0.3-4.6-0.4c1-3.8,2.1-7.7,3.1-11.5c0.9,1.1,1.6,2.6,2.7,3.4
					c1.2,0.8,2.8,1.1,4.2,1.6c-0.3,1-0.6,2-0.8,2.9c-0.6,0.7-1.1,1.3-1.7,2l0,0C659.7,1143.7,658.7,1144.3,657.7,1145L657.7,1145z"
					/>
				<path class="st6" d="M525.9,302.2c2.9-2.5,5.9-4.9,8.8-7.4c6.9-2.7,14.1-4.9,20.7-8.2c3.5-1.7,6.5-4.9,9-8
					c5.9-7.3,10.1-20,17.1-21.7c31.3-7.3,63.5-16,95.2-15.3c22.5,0.5,45.7,13.2,66.5,24.4c13.8,7.4,30.7,20.1,34.1,33.5
					c7.5,29.7,7.4,61.3,10.5,92.1c-5-2-10-4-15-6c-19.3-3.6-38.5-9.2-58-10.1c-15.8-0.7-32.4,2.5-47.6,7.3
					c-8,2.5-19.7,12.8-19.3,18.6c1.2,14.5,7.6,28.9,13.8,42.5c2.7,5.9,8.9,12.3,14.8,14.3c19.8,6.6,40,13.2,60.5,15.8
					c13.3,1.7,27.5-3.8,41.3-5.9c10.1-1.5,27.5-6.2,29.1-3.1c7.6,15.2,7.8,27.1-7.6,44.4c-17.5,19.7-20.6,52.4-29.4,79.6
					c-2.2,6.7-1.6,14.2-3.4,21c-3.5,13.2-7.2,26.5-12.2,39.2c-2.8,7-10.1,12.5-12,19.6c-1.5,5.7,2.5,12.7,2.7,19.1
					c0,1-7.1,2.2-10.8,3.5c-1.3,0.4-3,0.9-3.7,1.9c-3.2,4.8-5.1,11.9-9.5,14.3c-11.5,6.4-23.7,13.4-36.3,15.3
					c-21.6,3.2-43.7,2.9-65.6,3.5c-1,0-1.7-6.6-3.1-6.9c-6.9-1.3-14.5-0.2-20.9-2.5c-6-2.1-16-8.7-15.4-11.1
					c4.7-19.4,32.7-32.5,51.8-27.4c24,6.3,45,1.9,58.6-21.4c2-3.4,3.6-7.3,6.3-10c7.7-7.8,15.9-15,23.9-22.5
					c0.3-0.3,0.4-1.1,0.2-1.4c-3.1-5.3-5.2-14.1-9.5-15.3c-17.6-5.2-35.8-8.1-53.9-11.7c-7.7-1.5-15.5-2.6-23.2-4.2
					c-0.3-0.1-0.3-5.5,0.4-5.8c14-4.9,29-7.7,41.8-14.6c8.3-4.5,13.4-15,20-22.8c0.1-1,0.2-1.9,0.3-2.9c6.3-10.5-1.1-19.4-19.4-19.6
					c-18.7-0.2-37.5,3.2-56.2,3.2c-6.6,0-13.7-4.9-19.4-9.1c-1-0.7,3.8-9.7,6.4-14.5c4-7.3,10.4-14,12.2-21.7c4-17.7,6.7-35.9,8-54
					c0.8-12,1.7-32.8-3.3-34.8c-23-9.1-47.8-13.8-72.4-18c-6.2-1.1-13.8,5.6-20.7,8.7H532c-7.7-1-15.4-2-23.1-3.1
					c2.5-10.5,5.3-20.9,7.5-31.5C519.6,335.2,522.7,318.7,525.9,302.2z M755.7,644.6c1.2-2.2,1.8-2.7,1.7-3.2s-0.7-0.8-1.2-1.2
					c-0.4,0.5-1.1,1-1.2,1.6C754.9,642.4,755.3,643.1,755.7,644.6z"/>
				<path class="st6" d="M572.1,214.6c-6.7,2.3-13.4,4.7-20,7c0.6-1.6,0.9-3.4,1.9-4.7c0.8-1.1,2.3-2.2,3.7-2.4
					c10.3-2.2,20.7-4.3,31.1-6.4C583.2,210.3,577.7,212.4,572.1,214.6z"/>
				<path class="st6" d="M600.7,212c3.7,0.9,7.4,1.8,11.1,2.7c-11.4,5.1-22.8,10.2-34.2,15.5c-1.7,0.8-2.9,2.5-4.3,3.8
					c0.7-1.9,0.8-4.7,2.2-5.6C583.7,222.7,592.2,217.4,600.7,212z"/>
				<path class="st6" d="M880,547c-7.4,3.8-14.7,7.7-22.1,11.5c-4.3,2.2-8.7,4.4-13.1,6.4c-0.2,0.1-1.7-1.6-1.5-2
					c3.5-6.7,7.1-13.2,10.6-19.8c3.3-6.3,6.7-12.5,9.6-19c0.8-1.9,0.2-4.4,0.3-6.6c1.4,0.5,2.7,1,4.1,1.5c1.1,0.4,2.9,1.3,3.2,1
					c5.3-6.5,10.5-13.1,15.6-19.9c1.3-1.8,2-4.1,3-6.2C886.5,511.6,883.3,529.3,880,547z"/>
				<path class="st6" d="M848.4,597.2c-4.5-2.7-8.9-5.4-13.4-8c10-3.6,20.1-7.2,30.1-10.8C859.5,584.7,854,591,848.4,597.2z"/>
				<path class="st6" d="M451.1,556.9c-1.8-5.9-3.5-11.8-5.3-17.7c1.2,2.9,2.5,5.8,3.7,8.7c0.7,1.5,1.4,2.9,2,4.4
					C451.5,553.7,451.3,555.3,451.1,556.9z"/>
				<path class="st6" d="M594.9,487.7c-3.4,23.4-13.7,50.5-9.4,75.1c5.3,30.1-20.1,29.2-30.4,42.9c-2.5-2.4-6.4-4.4-7.4-7.4
					c-5.7-17-10.5-34.2-15.9-51.3c-11.1-35.1,14.3-45,38.2-56.2c5.4-2.6,10.2-6.5,15.3-9.7c1.6-1,4.2-2.7,4.9-2.2
					C591.7,480.1,592.2,482.5,594.9,487.7z"/>
				<path class="st6" d="M689.6,622.2c6.5,22.8-10.9,25.1-25.3,27.4c-12.4,2-25.4,0.5-38.1,0.3c-2.7-0.1-5.4-1.6-8.2-2.5
					c3-1.1,5.9-2.5,8.9-3.1c3.3-0.7,6.7-0.6,10.1-0.9c-2.2-1.3-5.2-2-6.4-3.9c-2.9-4.3-4.9-9.2-7.2-13.9c8.4,0.3,17,1.5,25.3,0.9
					c13-0.9,25.9-3,38.9-4.5C688.4,621.9,689,622,689.6,622.2z"/>
				<path class="st6" d="M601.6,658.2c-11.4,2.8-22.9,5.5-34.3,8.3c-0.9,0.2-1.7,0.4-2.6,0.6c-1.1-8.5-3.6-17.3-2.6-25.5
					c0.3-2.6,10.4-6.5,15.1-5.6c9.5,1.9,18.7,6.2,27.4,10.8c3.3,1.7,4.8,6.9,7.2,10.5c-3.3,0.6-6.6,1.2-10,1.8
					C601.8,658.8,601.7,658.5,601.6,658.2z"/>
				<path class="st6" d="M528.7,227c5-4.3,10-8.7,15-13c1.9-1.1,3.7-2.1,5.6-3.2c-1.4,1.8-2.8,3.5-4.2,5.3
					c-4.1,5.4-8.1,10.8-12.2,16.2c-1.9,2.6-3.9,5.2-5.8,7.7C527.7,235.7,528.2,231.4,528.7,227z"/>
				<path class="st6" d="M550.9,208.9c3-2,5.6-3.7,8.2-5.3c0.1,0,0.6,0.7,1,1c-2.6,1.7-5.1,3.4-7.7,5
					C552.1,209.7,551.5,209.2,550.9,208.9z"/>
				<path class="st6" d="M593.8,207.1c-0.3-0.2-0.8-0.4-1.2-0.6c0.3-0.1,0.6-0.4,0.8-0.4c0.4,0.1,0.9,0.3,1.3,0.5
					C594.5,206.7,594.2,206.9,593.8,207.1z"/>
			</g>
		</g>
		<g>
			<defs>
				<circle id="SVGID_7_" cx="633.5" cy="633.5" r="633.5"/>
			</defs>
			<clipPath id="SVGID_8_">
				<use xlink:href="#SVGID_7_"  style="overflow:visible;"/>
			</clipPath>
			<g class="st7">
				<path class="st8" d="M1054.7,1267c8.5-43.9,16.6-87.8,25.6-131.5c2.5-12.2,7.6-23.9,11.8-35.8c0.4-1.1,2.6-1.5,4-2.2
					c0.5,1.5,1.6,3.1,1.3,4.3c-9.6,36.4-19.5,72.6-28.9,109c-3.1,11.8-5.1,24-7.5,36c-0.2,1.1,0.5,2.4,0.8,3.6
					c0.9-0.6,2.1-0.9,2.6-1.7c16.9-29.8,33.7-59.6,50.5-89.3c15.9-28.2,32.4-56,47.4-84.7c1.8-3.4-3.8-10.6-5.7-16.1
					c-0.5-1.4,0.1-3.1,0.2-4.7c0.1,0.1,0.2,0.1,0.3,0.2c-0.1-0.1-0.2-0.1-0.4-0.2c2.3,1.2,4.7,2.2,6.7,3.7c1,0.7,1.3,2.3,2.1,3.3
					c1.7,2,3.5,3.9,5.3,5.8l0,0c3,3.7,5.9,7.3,8.9,11l0.1,0.1c-0.4,2-0.8,4.1-1.2,6.1c-0.1,0.6-0.2,1.1-0.3,1.7
					c-0.5,0.5-0.9,1-1.4,1.5c-3.7-3.7-7.4-7.4-11.2-11.1c-1.7,5-3.4,10-5,14.9c5.3,0,10.6,0,15.9,0c1.2,0.8,2.5,1.6,3.7,2.4
					c1.4,8.5,2.8,17.1,4.3,25.6l0.1-0.1c-3.6-6-7.3-12-10.9-17.9c-5.9,6.9-11.8,13.8-17.7,20.6c-1.1,1.3-3,2.5-3.1,3.8
					c0,1.6,1.5,3.3,2.3,4.9c5.2-7.1,10.3-14.3,15.5-21.4c1.1,1.5,3.1,2.9,3.2,4.4c1.3,12.3,1.9,24.6,3.4,36.9
					c3,24.3,7.3,48.5,9.5,72.9c1.3,14.5-0.2,29.2-0.4,43.9c-5,0-10,0-15,0c0.9-11.6,2.8-23.2,2.5-34.7c-0.6-22.2-2.4-44.4-3.9-66.6
					c-0.3-4.1-1.6-8.1-2.4-12.2c-2.2,3.5-6.1,6.9-6.4,10.5c-2.9,34.3-5.2,68.6-7.7,102.9c-4,0-8,0-12,0c1-11.4,1.7-22.8,3-34.1
					c3.5-28.7,7.3-57.4,10.8-86.2c0.2-1.9-1.2-4.1-1.9-6.2c-1.2,1.9-2.7,3.6-3.6,5.6c-5.4,12.1-9.9,24.7-16.2,36.2
					c-15.6,28.4-32,56.4-48.1,84.6C1075.4,1267,1065.1,1267,1054.7,1267z"/>
				<path class="st8" d="M147.7,1267c-5.1-35-10.2-70.1-15.2-105.1c-0.4-2.6,0.1-5.2,0.2-7.9l0,0c0.2-4.8,0.3-9.6,0.7-14.4
					c0.4-4.3,1-8.7,1.6-13c2.6,6.7,5.6,13.3,7.6,20.2c3.9,13.3,7.1,26.8,10.6,40.2c0.1,0.4,0.2,0.7,0.3,1.1c1.5,4.6,3,9.2,4.4,13.9
					c0.1,0.5,0.3,0.9,0.4,1.4c3.1,21.2,6.2,42.4,9.4,63.7C161.1,1267,154.4,1267,147.7,1267z"/>
				<path class="st8" d="M212.7,1267c-1-16.6-2-33.2-2.7-49.7c-0.1-2,2.7-4,2.9-6.1c0.9-10.2,2.5-20.5,1.7-30.6
					c-1.4-17.7-4.4-35.2-6.6-52.9c-1.2-9.4-2-18.8-2.9-28.2c-0.1-0.7,1-1.5,1.5-2.3c1,1.1,2.7,2.2,2.8,3.3
					c3.3,36.7,6.8,73.4,9.4,110.2c1.3,18.7,0.7,37.6,1,56.4C217.4,1267,215.1,1267,212.7,1267z"/>
				<path class="st8" d="M514.9,743c0.9,7.8-0.3,16.7,3,23.3c10,19.5,21.2,38.5,33.2,56.8c14.5,22,29.8,43.5,46.1,64.3
					c4.5,5.7,13.5,7.8,20.4,11.6c0.1-3.1-1-7.9,0.6-9c7.2-5.3,15.6-8.9,22.6-14.4c18.4-14.4,36.5-29.1,54.2-44.3
					c25.3-21.7,50.4-43.7,75.2-65.9c7.3-6.6,13.1-14.7,20-21.8c2.6-2.7,6.4-4.3,9.6-6.4c-0.6,7.2-3.9,15.8-1.1,21.3
					c6.5,12.8,17.3,23.4,24,36.2c10.1,19.3,18.2,39.6,27.2,59.5c-0.1,2.8-0.3,5.5-0.4,8.3c-0.6,0.6-1.2,1.3-1.9,1.9
					c-4.9-7.6-10.9-14.8-14.6-23c-7-15.3-11.9-31.6-19.4-46.6c-2.5-5.1-10.3-7.5-15.6-11.2c1.8,12.9,0.4,27.6,6.1,38.5
					c11.1,21.2,26.2,40.2,39.7,60.2c-3.3,6.1-6.5,12.2-9.8,18.3c-1.9-12.2-2.8-24.6-6.1-36.5c-1.5-5.2-7.6-9.2-11.6-13.7
					c-1.9,3.9-4.5,7.7-5.4,11.9c-4.8,21.8-4.6,46-28.8,58.1c-2.6,1.3-6.7,3.4-8.3,2.4c-3.9-2.4-6.7-6.5-9.9-10
					c2.1-1.5,4.9-2.7,6.1-4.7c1.6-2.7,3.2-6.4,2.6-9.2c-0.5-2.3-3.9-5-6.4-5.5c-3.1-0.6-6.6,0.9-9.9,1.5c2.2-3.5,4.5-7.1,6.6-10.6
					c0.8-1.3,1.3-2.8,1.9-4.2c-1.4-0.2-2.9-0.4-4.3-0.8c-2.6-0.7-5.9-0.9-7.6-2.6c-2-2-2.6-5.5-3.8-8.3c-9.9,5.3-21.1,9.2-29.4,16.4
					c-8,6.9-13.7,16.9-19.4,26.2c-7.5,12.3-12.8,26.1-21.4,37.5c-5.3,7.1-14.2,13-22.8,15.9c-10.2,3.6-21.7,3.5-32.6,5.1
					c-0.3-0.1-0.6-0.1-0.9-0.1c-6-14.7-9.7-31-18.6-43.6c-6.2-8.8-21.8-10.6-29.3-19c-21.3-24.2-40.6-50.2-60.7-75.5
					c-1.4-3-2.8-6-4.2-8.9c0.7-0.2,2.2-0.5,2.2-0.7c-0.8-16.7-1.7-33.3-2.6-49.9c1.3-4.1,2.7-8.2,4-12.3c0.4-3.7,0.7-7.3,1.1-11
					C514.7,746.3,514.8,744.7,514.9,743z M833,819.6c0.1-0.3,0.3-0.6,0.3-0.8c-0.1-0.2-0.5-0.2-0.7-0.3c-0.1,0.3-0.4,0.6-0.3,0.7
					C832.3,819.4,832.7,819.5,833,819.6z M830.3,814.3c-0.1-0.3-0.2-0.7-0.3-0.7c-0.2-0.1-0.5,0.2-0.8,0.3c0.1,0.3,0.1,0.7,0.3,0.7
					S830,814.4,830.3,814.3z"/>
				<path class="st8" d="M444.9,528c0.3-3,0.5-5.9,0.8-8.9c2,7.8,3.9,15.6,6,23.3c0.2,0.9,1.3,1.5,1.9,2.4c4,5.8,7.9,11.6,11.8,17.4
					c3.6,5.4,8,10.4,10.4,16.3c1.8,4.2,1,9.5,1.3,14.4c0.3,4.2,0,8.5,0.9,12.4c1,4.4,3.2,8.4,4.9,12.6c-3.8-2.3-7.5-4.7-11.5-6.8
					c-1.3-0.7-3.1-0.7-4.6-1c-1.5-3.7-3-7.4-4.6-11c-0.1-0.9-0.2-1.8-0.3-2.7c-3.1-7.2-6.1-14.3-9.2-21.5l0,0c-0.6-6-1.2-12-1.8-18
					c0.2-1.6,0.3-3.1,0.5-4.7c-0.7-1.5-1.4-2.9-2-4.4c-1.2-2.9-2.5-5.8-3.7-8.7C445.5,535.4,445.2,531.7,444.9,528z"/>
				<path class="st8" d="M647.6,173.5c10.4,1.2,20.8,2.3,31.2,3.5c1,0.1,2,0.1,3.1,0.2c2.7,0.9,5.4,1.6,8.1,2.6
					c13.1,4.5,26.2,9.1,39.4,13.7c-14.8-3.1-29.6-5.8-44.2-9.3C672.4,181.1,660,177.1,647.6,173.5z"/>
				<path class="st8" d="M1194.7,1165c-1.3,5.2-2.6,10.4-4,15.6c-1.3-9.8-2.9-19.6-3.9-29.4c-0.7-6.8-0.4-13.7-0.5-20.6
					c1.8,7.6,3.5,15.2,5.4,22.8c0.7,3,1.9,5.8,2.9,8.7C1194.7,1163,1194.7,1164,1194.7,1165z"/>
				<path class="st8" d="M861.7,330.1c0.3,0,0.6,0,1-0.1c-0.1,2-0.2,4-0.3,6.1C862.1,334.1,861.9,332.1,861.7,330.1z"/>
				<path class="st8" d="M510.8,961c5.5-4,14.4-7.2,15.4-12.1c1.1-5.4-4.5-12.7-8.3-18.3c-11.1-16.2-22.9-32-34.3-48
					c-0.5-0.6,0-2,0.1-3c1,0.8,2.2,1.4,3,2.4c1.8,2,3.2,4.4,5,6.4c11.8,12.8,23.7,25.6,35.7,38.3c1,1.1,2.7,1.6,4.1,2.4
					c-2-5.5-4-11.1-6.2-16.6c-9.5-23.8-19-47.6-28.5-71.4c-0.4-1,0.1-2.3,0.2-3.4c1,0.9,2.2,1.6,2.8,2.7c9.8,17.9,20,35.6,29.1,53.8
					c2.9,5.9,1.9,13.8,4.8,19.7c1,2.1,8.5,0.9,13.1,1.2c1,11.7,1.8,23.3,3.2,35c0.3,2.7,1.9,6.7,3.9,7.4
					c11.1,4.2,22.6,7.7,33.9,11.4c-0.6,1.3-1.3,2.6-1.9,4c-0.3,1.4-1.3,3.4-0.7,4.1c8.6,10.5,16.7,21.7,26.7,30.8
					c3.7,3.4,11.9,2.1,18,2.9c-3.5-3.7-6.5-8-10.5-11c-7.9-5.9-16.3-11.1-24.5-16.6c4.9,1.4,9.9,2.7,14.8,4.1l0.2-0.2
					c3.7,0.8,7.5,1.5,11.2,2.3c0.2,0.2,0.3,0.4,0.5,0.6c1.1,1,2.2,2,3.3,2.9c9.5,12.7,18.9,25.3,28.4,38
					c-12.2-5.5-24.3-11.2-36.6-16.6c-6.7-2.9-15.7-3.2-20-8c-9.7-10.6-16.1-24.2-25.7-35c-18.2-20.6-21.2,6.3-31.4,11
					c-9.3,4.7-18.6,9.4-27.9,14.1c-1.1-0.3-2.1-0.6-3.2-0.9c-0.9-1-1.7-2.1-2.6-3.1c1.3-1.4,2.2-3.6,3.8-4.2
					c9.1-3.7,19.6-5.4,27.2-11c4.6-3.3,5.1-12.4,6.6-19.1c0.1-0.5-6.7-2.6-10.2-3.9c-0.3,4,0.8,9.2-1.3,11.7
					c-3.3,4-8.7,6.2-13.3,9.2C516.1,970.3,513.4,965.7,510.8,961z M548,962.3c-0.9-0.4-1.2-0.7-1.6-0.7c-0.2,0-0.5,0.5-0.5,0.7
					c0,0.4,0.3,0.7,0.5,1C546.9,963,547.3,962.8,548,962.3z"/>
				<path class="st8" d="M663.6,1077c-1.1,0-2.3,0-3.4,0c15.6-10.3,31.3-20.6,46.9-31c1.7-1.1,3.2-2.6,4.8-4h-0.1
					c1.4-1,2.9-2,4.3-3.1c4.7-7.5,23.2-12,5.5-24.5c3.8,4.9,7.6,9.7,11.4,14.6C709.9,1045.1,686.7,1061,663.6,1077z"/>
				<path class="st8" d="M616.8,976c-1.7-0.9-3.3-1.8-5-2.7c3.3-1.1,6.6-2.3,9.8-3.4C620,971.9,618.4,974,616.8,976z"/>
				<path class="st8" d="M846.6,914.8c8.4-10.5,16.7-21.2,25.4-31.5c1.7-2.1,5.2-2.7,7.9-4c0.7,2.5,1.6,4.9,2.1,7.4
					c1,5.4,2.2,10.9,2.6,16.4c0.3,3.9,1.1,9.3-1,11.6c-4.3,4.6-11.1,6.7-15.6,11.2c-5.2,5.3-9.4,11.9-13.4,18.2
					c-3.8,5.9-6.8,12.2-10.1,18.4c-0.4,0.8-0.2,1.9-0.3,2.8c-0.2,3.3,0.9,7.5-0.7,9.7c-5,7-11.1,13.2-16.7,19.8
					c-1.1,1.3-2,2.7-3,4.1c4.5,1.6,9,4.3,13.5,4.5c2.5,0.1,5.2-3.9,7.9-6.1c-1.3,2.8-2.8,5.6-4,8.5c-0.5,1.3-0.6,2.8-0.9,4.3
					c1.5-1.4,3.4-2.5,4.6-4.1c5.7-8,11.3-16.2,16.9-24.3c-0.2,0.8-0.4,1.6-0.6,2.4c-6.8,11.1-13.5,22.2-20.4,33.2
					c-0.7,1.1-2.1,1.7-3.2,2.5c0.4-1.1,0.9-2.1,1-3.2c0.2-1.4,0.1-2.8,0.1-4.3c-2.4,2.4-4.8,4.8-7,7.3c-1.9,2.2-3.6,4.6-5.4,6.9
					c0.6-2.5,1.3-5,1.8-7.6c0.3-1.4,0.2-2.8,0.2-4.2c-1.8,0.4-4,0.3-5.4,1.3c-1.1,0.8-1.5,2.8-1.8,4.4c-1.1,4.9-1.9,9.9-2.9,14.9
					c-0.8-0.7-1.6-1.4-2.4-2.1l0,0c-3-4.4-8.4-8.9-8.3-13.3c0.1-6.6,3.3-13.5,6.6-19.5c15.2-27.4,31-54.5,46.4-81.8
					c1.9-3.3,2.9-7.2,4-10.9c0.5-1.6,0.4-3.3,0.6-5c-1,0.4-2.4,0.5-2.9,1.2C848,926.2,834,948.6,819.9,971c-1.7,2.7-2.6,6.3-4.9,8.3
					c-1.4,1.2-4.7,0.2-7.2,0.2c2.2-2.4,5.1-4.5,6.5-7.4c3.6-7.5,5.8-15.9,10-23c6.8-11.6,14.7-22.6,22.2-33.9L846.6,914.8z"/>
				<path class="st8" d="M894.9,903.8c-2.2-1.3-4.4-2.7-6.5-4c2.8,0.4,5.8,0.5,8.5,1.3c43.6,13.3,87.2,26.7,130.8,40.1
					c7.9,3.4,15.8,6.8,23.7,10.2c28.1,25.9,56.3,51.7,84.2,77.7c1.8,1.7,2.3,4.9,3.5,7.4c-0.8-0.4-1.7-0.7-2.3-1.3
					c-3.1-3.2-6.2-6.4-9.1-9.8c-1.7-2-3.2-4.2-4.7-6.3c-37.9-47-85.5-78.3-145.1-91.4c-27.4-6-54.1-15-81.1-22.7l-0.1,0.1
					C896.2,904.6,895.5,904.2,894.9,903.8z"/>
				<path class="st8" d="M641.7,1111.9c6.8-9.6,13.7-19.3,20.5-28.9c6.3-0.3,13,0.6,18.9-1.3c12.8-4.1,26.5-7.6,37.3-15
					c17-11.6,30.2-32.5,48.3-37.1c10.7-2.8,27.4,18.1,41.5,28.3c-1.1,0.4-2.2,0.8-3.4,1.3c-3.7,1.3-7.5,2.3-11,4.1
					c-1.8,0.9-2.8,3.2-4.2,4.9c9.1,1.2,18.8,5,27,2.9c6.2-1.6,10.5-10.8,15.7-16.6c-2.2-0.5-4.3-1.1-6.5-1.6
					c8.9-5.5,17.7-11.4,26.8-16.6c23.3-13.2,46.8-26.2,70.3-39.1c0.9-0.5,2.6,0.3,3.9,0.5c-0.2,1.5,0,3.8-0.8,4.3
					c-20,13.4-40.1,26.7-60.2,40c-0.1-0.1-0.2-0.1-0.3-0.2c0.1,0.1,0.2,0.1,0.3,0.2c-9.1,6.1-18.6,11.7-27.3,18.3
					c-7.9,6-14,15.6-22.7,19.1c-6.1,2.4-15.6-5-22.8-3.9c-15.1,2.4-30.1,6.6-44.5,12c-19.9,7.4-38.7,17.9-58.8,24.2
					c-7.5,2.4-17.5-4-26.5-5c-2.6-0.3-5.7,4.1-8.6,6.4C650.2,1112.7,645.9,1112.3,641.7,1111.9z M737.5,1079.2
					c12.8-9.9,25.5-19.8,38.2-29.8c1.8-1.4,3.5-2.9,5.3-4.4c-4.1,1.4-8.3,2.5-12.1,4.4c-10.6,5.3-21.1,10.8-31.4,16.8
					c-3.6,2.1-6.4,5.6-9.6,8.4C730.5,1075.8,733,1077,737.5,1079.2z"/>
				<path class="st8" d="M645.8,1149c1.4-1.6,4.2-4.3,3.9-4.8c-10.4-14.4,3.6-16.6,10.9-22.1c0.8,5.3,1.7,10.6,2.5,15.9
					c-1.4-0.5-3-0.7-4.2-1.6c-1.1-0.8-1.8-2.2-2.7-3.4c-1,3.8-2.1,7.7-3.1,11.5c1.5,0.1,3.1,0.3,4.6,0.4c0,0.9,0,1.9-0.1,2.8
					c-4,0.8-8.1,1.5-12.1,2.3C645.7,1149.7,645.7,1149.4,645.8,1149z"/>
				<path class="st8" d="M800.7,1043.8c-3.5-7-7-14-10.4-21.1c-0.2-0.4,1.3-2.1,1.6-2c2.6,0.6,6,0.8,7.4,2.6
					c2.9,3.8,3.9,9.3,7.2,12.3c2.1,1.9,7.2,0.5,10.9,0.6C811.8,1038.7,806.2,1041.3,800.7,1043.8z"/>
				<path class="st8" d="M813.8,1054.7c-1,0.7-1.9,1.4-2.9,2.1c-0.6-1.9-1.3-3.9-1.9-5.8C810.6,1052.2,812.2,1053.4,813.8,1054.7z"
					/>
				<path class="st8" d="M657.7,1145c1-0.7,2-1.4,3-2.1C659.7,1143.7,658.7,1144.3,657.7,1145z"/>
				<path class="st8" d="M660.7,1143c0.6-0.7,1.1-1.3,1.7-2C661.8,1141.6,661.2,1142.3,660.7,1143z"/>
				<path class="st8" d="M132.8,1154c-0.1,0-0.2-0.1-0.3-0.1C132.5,1153.9,132.6,1154,132.8,1154L132.8,1154z"/>
				<path class="st8" d="M1170.8,1107c0.5-0.7,1-1.3,1.5-2C1171.8,1105.6,1171.3,1106.3,1170.8,1107z"/>
				<path class="st8" d="M1184.7,1119c0.1,0.1,0.2,0.1,0.4,0.2C1185,1119.1,1184.9,1119.1,1184.7,1119L1184.7,1119z"/>
				<path class="st8" d="M696.4,548.9c-6.5,7.8-11.6,18.3-20,22.8c-12.8,6.9-27.8,9.7-41.8,14.6c-0.8,0.3-0.7,5.7-0.4,5.8
					c7.7,1.6,15.5,2.7,23.2,4.2c18,3.6,36.3,6.5,53.9,11.7c4.3,1.3,6.4,10,9.5,15.3c0.2,0.3,0.1,1.2-0.2,1.4
					c-8,7.5-16.2,14.8-23.9,22.5c-2.7,2.7-4.3,6.6-6.3,10c-13.6,23.3-34.6,27.7-58.6,21.4c-19.1-5.1-47.1,8-51.8,27.4
					c-0.6,2.4,9.4,9,15.4,11.1c6.4,2.3,14,1.2,20.9,2.5c1.5,0.3,2.2,6.9,3.1,6.9c21.9-0.7,44-0.3,65.6-3.5
					c12.6-1.9,24.8-8.9,36.3-15.3c4.4-2.5,6.2-9.5,9.5-14.3c0.7-1,2.4-1.5,3.7-1.9c3.8-1.2,10.8-2.5,10.8-3.5
					c-0.2-6.5-4.3-13.5-2.7-19.1c1.9-7.1,9.2-12.6,12-19.6c5-12.7,8.7-26,12.2-39.2c1.8-6.8,1.2-14.3,3.4-21
					c8.8-27.2,11.9-59.9,29.4-79.6c15.4-17.4,15.2-29.3,7.6-44.4c-1.5-3.1-19,1.6-29.1,3.1c-13.8,2-28,7.5-41.3,5.9
					c-20.5-2.6-40.7-9.3-60.5-15.8c-6-2-12.2-8.4-14.8-14.3c-6.1-13.6-12.5-28-13.8-42.5c-0.5-5.9,11.3-16.1,19.3-18.6
					c15.2-4.8,31.8-8,47.6-7.3c19.4,0.9,38.7,6.5,58,10.1c-7.2,0.8-14.4,1.7-21.7,2.3c-1.4,0.1-2.8-1.1-4.3-1.3
					c-12.5-1.8-25.2-5.3-37.6-4.8c-10,0.4-20.7,4.2-29.3,9.4c-6.2,3.7-13,12.1-13.2,18.7c-0.3,8.6,4,18.6,9.3,25.8
					c2.7,3.6,11.9,2.4,18.2,3.4c-0.7,1.9-1.4,3.8-2,5.7c3.4-0.8,6.9-1.6,10.2-2.5c7.6-2.1,10.7-24.6,24.5-2.9
					c4.8,7.6,25,6.1,38.4,7.4c11.5,1.1,23.3,1,34.7-0.7c2.7-0.4,6.8-10.4,5.5-14.3c-4.7-13.8-11.5-26.9-17.5-40.2
					c-3-30.8-2.9-62.4-10.5-92.1c-3.4-13.4-20.4-26-34.1-33.5c-20.8-11.2-44-23.9-66.5-24.4c-31.7-0.7-63.8,8-95.2,15.3
					c-7,1.6-11.2,14.3-17.1,21.7c-2.5,3.1-5.5,6.3-9,8c-6.6,3.3-13.8,5.5-20.7,8.2c17.8-16,34-34.7,54.1-47.1
					c11.9-7.3,30.1-3.9,45.2-6.6c17.3-3.1,34.9-12,51.4-10.1s32.1,13.3,47.5,21.7c23.6,13.1,53.1,22.3,68.1,42.2
					c14.3,19,15,49.3,18.5,75c1.7,12.2-7.3,25.9-5.5,38.1c2.8,18.4,15,35.9,15.7,54.1c0.9,23.1-7.2,46.3-8.4,69.7
					c-0.9,17.3,2.9,34.8,4.5,52.2c0.2,2.4-0.8,5-0.5,7.4c0.4,3.8,1.3,7.5,2,11.3c1.3-6.5,2.7-12.9,3.9-19.4
					c3.6-18.8,7-37.6,10.7-56.4c0.1-0.6,3.2-0.9,4.8-0.7c1.4,0.1,2.9,1.6,4.2,1.3c0.8-0.2,1-2.5,1.8-3.6
					c8.1-12.5,16.6-24.8,24.3-37.6c2.2-3.6,3.1-12.3,2.6-12.4c-21.1-6.9,0.9-16.3-1.5-24c3.9,14.7,7.7,29.3,11.6,44
					c-1,2.1-1.6,4.4-3,6.2c-5,6.7-10.3,13.4-15.6,19.9c-0.3,0.3-2.1-0.6-3.2-1c-1.4-0.5-2.8-1-4.1-1.5c-0.1,2.2,0.6,4.7-0.3,6.6
					c-2.9,6.4-6.3,12.7-9.6,19c-3.5,6.6-7.2,13.2-10.6,19.8c-0.2,0.3,1.3,2,1.5,2c4.4-2,8.8-4.2,13.1-6.4
					c7.4-3.8,14.7-7.6,22.1-11.5c-5,10.5-9.9,20.9-14.9,31.4c-10,3.6-20.1,7.2-30.1,10.8c4.5,2.7,8.9,5.4,13.4,8
					c-24.2,8.8-24.8,29.8-26.1,50.5c-11.5,13.3-21.7,28.2-35,39.5c-13.8,11.7-30.5,19.9-46,29.6c-6.2,3.9-12.2,8.4-18.9,11.4
					c-2,0.9-5.8-3.3-8.9-3.5c-3-0.2-6.1,2-9.2,2.8c-21.2,5.5-42.2,13.4-63.8,15.7c-14.9,1.6-30.8-3.6-45.8-7.5
					c-9.3-2.5-17.6-8.3-26.4-12.7c-0.5-0.2-0.8-0.9-1.2-1.4c-4.2-6.1-9.3-11.9-12.4-18.5c-4.5-9.6-7-20.1-11.2-29.8
					c-5.9-13.4-13-26.2-18.8-39.6c-6.5-15.1-14.1-30.2-17.7-46.2c-4.6-20.4-12.5-38-22.8-56.4c-8.9-15.7-5.4-38.4-7.4-58
					c-0.1-0.5,0.6-1.5,1.2-1.7c3.1-0.8,6.8-2.8,9.3-1.8c9.6,3.6,18.5,9,28.1,12.4c17.1,6,20.4-1.3,16.8-17.2
					c-1.3-5.5,3-12.3,4.7-18.6c2.5,2.4,5.1,7,7.5,6.9c8.4-0.1,17-1.3,25.2-3.4c2.2-0.6,3.1-5.9,4.7-9.1c2.7,4,5.3,8,8.2,11.9
					c1,1.4,2.6,3.1,4.1,3.3c2.4,0.3,5-0.6,7.6-1c-0.7-2.2-1.6-4.4-2.2-6.7c-0.2-0.8,0.2-1.7,0.4-2.6c2,1.8,4,5.2,5.9,5.1
					c6.5-0.3,18.5-1.3,18.6-2.9c1.2-12.5,4.8-28.4-1.3-37.2c-20.4-29.4-51.9-30-84-24.5c6.9-3.1,14.5-9.8,20.7-8.7
					c24.6,4.2,49.4,8.9,72.4,18c5,2,4.2,22.8,3.3,34.8c-1.3,18.1-4,36.3-8,54c-1.7,7.8-8.2,14.4-12.2,21.7
					c-2.6,4.9-7.4,13.8-6.4,14.5c5.7,4.2,12.8,9.1,19.4,9.1c18.7,0,37.5-3.4,56.2-3.2c18.3,0.2,25.7,9.1,19.4,19.6
					c-11.3-2.7-22.6-6.7-34.1-8c-15.3-1.7-30.8-1.3-46.3-2c-5.4-0.3-11.9-3.4-16-1.4c-4.4,2.1-8.7,8.5-9.3,13.5
					c-2,15.7,23.3,33.3,41.1,27.3C654.1,568.1,675.1,557.9,696.4,548.9z M689.6,622.2c5.1,1,10.3,2.8,15.4,2.6
					c2.9-0.1,5.7-3.5,8.6-5.4c-1.9-2-3.9-5.6-5.8-5.6c-22,0.6-43.9,2.2-65.8,2.4c-12.3,0.1-24.7-3.3-36.9-2.9
					c-9.6,0.4-19.3,3.9-28.6,7.1c-1.6,0.5-1.4,6.3-2,9.6c8-1.1,15.9-2.5,23.9-3.2c20.6-1.8,41.3-3.4,61.9-4.7
					c9.1-0.6,18.3-0.2,27.4-0.2c-13,1.6-25.9,3.6-38.9,4.5c-8.4,0.6-16.9-0.5-25.3-0.9c2.4,4.7,4.4,9.6,7.2,13.9
					c1.2,1.9,4.2,2.7,6.4,3.9c-3.4,0.3-6.8,0.2-10.1,0.9c-3.1,0.6-6,2.1-8.9,3.1c2.7,0.9,5.4,2.4,8.2,2.5
					c12.7,0.3,25.7,1.7,38.1-0.3C678.7,647.3,696.1,644.9,689.6,622.2z M594.9,487.7c-2.6-5.2-3.2-7.6-4.7-8.7
					c-0.7-0.5-3.4,1.2-4.9,2.2c-5.1,3.2-9.9,7.1-15.3,9.7c-23.9,11.3-49.4,21.1-38.2,56.2c5.4,17.1,10.2,34.3,15.9,51.3
					c1,3,4.9,5,7.4,7.4c10.4-13.7,35.7-12.8,30.4-42.9C581.1,538.2,591.4,511.1,594.9,487.7z M601.6,658.2c0.1,0.3,0.2,0.6,0.2,0.9
					c3.3-0.6,6.6-1.2,10-1.8c-2.3-3.6-3.9-8.8-7.2-10.5c-8.7-4.6-17.9-8.8-27.4-10.8c-4.7-1-14.8,3-15.1,5.6c-1,8.3,1.5,17,2.6,25.5
					c0.9-0.2,1.7-0.4,2.6-0.6C578.7,663.8,590.2,661,601.6,658.2z"/>
				<path class="st8" d="M451.7,304c7.4-7.2,15.1-14.1,22-21.6c6.4-7,11.6-15.2,18.2-21.9c8.2-8.3,17.6-15.5,26-23.6
					c1.6-1.5,1-5.2,1.4-7.9c3.2-0.7,6.3-1.3,9.5-2c-0.5,4.3-1,8.7-1.6,13c1.9-2.6,3.9-5.2,5.8-7.7c4.1-5.4,8.1-10.8,12.2-16.2
					c1.3-1.8,2.8-3.5,4.2-5.3c-1.9,1.1-3.7,2.1-5.6,3.2c0.3-2.1,0.7-4.3,1-6.4c12.9-9.2,24.9-20.6,39.1-26.7
					c10.2-4.4,23.6-1.3,35.5-1.9c6.6-0.3,13.2-1.3,19.8-2c11.1,6.1,22.2,12.3,33.2,18.5c0.3,0.2-0.3,1.9-0.4,2.8
					c-1.3-0.9-2.4-2.3-3.8-2.5c-6.6-1.1-13.2-1.9-19.8-2.7c-2.7-0.3-5.4-0.4-8.1-0.6c2.5,1.2,5,2.7,7.6,3.7c5.7,2,11.6,3.4,17.2,5.6
					c2.3,0.9,4,3.5,5.9,5.3c-2-0.1-4.1-0.3-6.1-0.3c-0.6,0-1.1,0.7-1.7,1.1c-2.4,1.5-4.8,4-7.3,4.2c-5.5,0.4-11.2-0.3-16.7-0.4
					c-0.2,0-1,1.8-0.7,2.3c2.2,3.7,4.6,7.4,6.9,11c-0.5-0.1-1.3-0.1-1.6-0.4c-4.7-5.4-9.1-10.9-13.9-16.1c-2.7-3-5.6-7.2-9-7.8
					c-6.7-1.2-13.7-0.4-20.6-0.4c0,0-0.1,0.6,0,0.6c8.7,3.9,17.4,7.8,26.1,11.7c1.3,0.6,3.7,1.4,3.7,2c-0.2,2.9-1,5.8-1.6,8.7
					c-1.7-0.4-3.6-0.5-5.1-1.4c-4-2.2-7.7-4.7-11.6-7c-3.7-0.9-7.4-1.8-11.1-2.7c-4-1.3-8-2.6-12-3.9c-10.4,2.1-20.7,4.1-31.1,6.4
					c-1.4,0.3-2.8,1.3-3.7,2.4c-1,1.3-1.3,3.1-1.9,4.7c6.7-2.3,13.4-4.7,20-7c3.9,0.8,7.7,1.6,11.6,2.4c-6.2,2.5-13.3,3.8-18.5,7.7
					c-19.2,14.3-37.7,29.6-56.9,43.9c-1.9,1.5-6.6-0.8-10.1-1.2c-0.7-0.1-1.7,0.3-2.2,0.8c-10.7,10.3-21.1,20.9-32.1,30.8
					C460.8,301.8,455.8,302.4,451.7,304z M550.9,208.9c0.6,0.3,1.3,0.8,1.5,0.7c2.6-1.6,5.1-3.3,7.7-5c-0.3-0.4-0.9-1.1-1-1
					C556.4,205.2,553.9,206.9,550.9,208.9z M593.8,207.1c0.4-0.2,0.7-0.4,1-0.5c-0.4-0.2-0.8-0.4-1.3-0.5c-0.3,0-0.6,0.3-0.8,0.4
					C593.1,206.7,593.5,206.9,593.8,207.1z"/>
				<path class="st8" d="M525.9,302.2c-3.2,16.5-6.3,33-9.7,49.4c-2.2,10.5-5,21-7.5,31.5c7.7,1,15.4,2,23.1,3.1
					c-7.7,4.3-15.3,8.7-23,13c-3.2,1.8-8.8,5.9-9.3,5.3c-19.2-21.5-15.4-44.9-2.6-67C504.5,324.5,516.1,313.9,525.9,302.2z"/>
				<path class="st8" d="M468.3,317.3c-8.8,0.7-13,1-17.2,1.3c6-4.2,11.4-9.7,18-12.3c13.3-5.2,27.3-8.8,40.9-13.2
					c4.7-1.5,9.4-3.3,14.1-5c-3.1,2.1-6.4,4-9.3,6.3c-2.3,1.7-4.2,3.9-6.3,5.8c0.7,0.2,1.5,0.7,2.1,0.6c3.8-0.5,7.5-1.1,11.2-1.6
					c-4.1,2.2-8.2,4.6-12.4,6.7c-3.9,1.9-7.9,3.4-11.9,5c-1.4,0.5-2.9,0.6-4.4,0.9c1.3-0.9,2.5-1.8,3.8-2.7c0.7-0.5,1.3-1,1.9-1.5
					c-0.9-0.2-1.9-0.8-2.7-0.6c-10.6,2.3-21.2,4.7-31.8,7.1c-0.4,0.1-0.7,0.6-1,0.9c0.5,0.3,0.9,0.9,1.4,1c1.8,0.4,3.6,0.6,5.4,0.8
					C468.2,317.3,466,317.9,468.3,317.3z M506,302.7c-1.6,0.4-3,0.9-4.5,1.3c1.2,0.4,2.5,1.1,3.7,1.1c1.5,0,3-0.6,4.5-1
					C508.5,303.6,507.3,303.1,506,302.7z"/>
				<path class="st8" d="M734.7,239.5c7.9,6.3,19.5,15.5,31,24.7c-0.8,0.3-1.8,1.1-2.4,0.8c-3.8-1.7-7.6-3.3-11.1-5.4
					c-8.5-4.9-17-10-25.4-15.1c-1.4-0.9-2.3-2.4-3.5-3.7C724.9,240.6,726.4,240.4,734.7,239.5z"/>
				<path class="st8" d="M845.6,313.3c4.7,4.6,9.3,9.3,14,13.9c-1.3,1-2.6,2.1-3.8,3.1C852.3,324.6,848.9,318.9,845.6,313.3z"/>
				<path class="st8" d="M638.7,176c-2.8-1.2-5.6-2.3-8.3-3.5c0.8-0.8,1.7-1.6,2.5-2.4C634.8,172.1,636.8,174.1,638.7,176z"/>
				<path class="st8" d="M800.4,235.4c0.4,0.6,0.8,1.1,1.2,1.7c-2.2-1.4-4.5-2.7-6.7-4.1C796.7,233.8,798.5,234.6,800.4,235.4z"/>
				<path class="st8" d="M803.6,237.5c0.3-0.1,0.5-0.1,0.8-0.1c0.5,0.8,1,1.5,1.6,2.3C805.2,239,804.4,238.2,803.6,237.5z"/>
				<path class="st8" d="M790.7,230.1c0.6,0.4,1.3,0.7,1.9,1.1C792,230.8,791.4,230.5,790.7,230.1z"/>
				<path class="st8" d="M844.5,311.1c0.3,0.7,0.6,1.4,1,2.1C845.1,312.5,844.8,311.8,844.5,311.1z"/>
				<path class="st8" d="M808.1,241.8c0.6,0.6,1.3,1.2,1.9,1.9C809.3,243,808.7,242.4,808.1,241.8z"/>
				<path class="st8" d="M790.6,962.8c0.3,0.1,0.7,0.2,1,0.4c3,1.7,5.9,3.5,8.9,5.2c1.8,2.5,3.5,5,5.3,7.5c-1.1,0.2-2.2,0.4-3.3,0.4
					c-8.4,0.5-18.1-1.5-24.9,2.1c-18.4,9.6-35.6,21.5-53.2,32.6c-1.2,0.8-2.1,2.1-3.1,3.2c-0.4-2.7-0.9-5.4-1.3-8.1h-0.1
					c7.8-2.9,15.6-5.7,23.4-8.6C759,986,774.8,974.4,790.6,962.8z"/>
				<path class="st8" d="M846.8,875c0.2-1,0.4-2,0.6-3.1C847.2,873,847,874,846.8,875z"/>
				<path class="st8" d="M515.7,236.9c-2.3,1.1-3.6,1.9-5,2.3c-0.4,0.1-1.1-0.8-1.7-1.2c1.3-0.9,2.5-2,3.8-2.7
					C513.1,235,514,235.9,515.7,236.9z"/>
				<path class="st8" d="M768,897.6c-0.3-0.1-0.7-0.2-0.7-0.4c-0.1-0.2,0.2-0.5,0.3-0.7c0.3,0.1,0.6,0.2,0.7,0.3
					C768.3,897,768.1,897.4,768,897.6z"/>
				<path class="st8" d="M588,925.8c-8-2.7-16-5.4-24-8.1c1.2-2.8,2.4-5.7,3.7-8.5c8.1,4.3,16.4,8.5,24.3,13.1
					c1.8,1.1,2.8,3.6,4.2,5.5c-2.8-0.9-5.6-1.8-8.4-2.8l-0.1-0.2l0.2,0.2C587.9,925.3,588,925.5,588,925.8z"/>
				<path class="st8" d="M603.9,965.9c-6.5-3.1-13-6.2-19.5-9.2c0.7-0.9,1.4-1.8,2-2.7C592.2,957.9,598.1,961.9,603.9,965.9z"/>
				<path class="st8" d="M614.3,966.2c-0.5-0.1-1.1-0.2-1.6-0.3c-2.5-5.3-5.2-10.6-7.2-16c-0.4-1,2.2-3,3.4-4.6
					C610.6,952.3,612.5,959.2,614.3,966.2z"/>
				<path class="st8" d="M608.2,972.2c-2.3-0.7-4.6-1.4-6.9-2c2.4-0.4,4.8-0.8,7.2-1.2C608.4,970.1,608.3,971.1,608.2,972.2z"/>
				<path class="st8" d="M609.7,966c-0.7,0-1.3,0-2-0.1c0.4-0.5,0.8-1,1.3-1.5C609.2,965,609.4,965.5,609.7,966z"/>
				<path class="st8" d="M609.6,987.1c-0.1-0.2-0.3-0.4-0.4-0.5C609.4,986.7,609.6,986.9,609.6,987.1
					C609.8,986.9,609.6,987.1,609.6,987.1z"/>
				<path class="st8" d="M897.3,900.2c-2.7-4.7-5.6-9.6-8.3-14.6c-0.1-0.1,2.1-1.7,2.1-1.7c4,4.7,7.8,9.5,11.7,14.2
					C902,898.5,901.2,898.8,897.3,900.2z"/>
				<path class="st8" d="M848.2,991.9c-0.2,0.2-0.3,0.4-0.5,0.6c-0.2-0.2-0.4-0.4-0.5-0.6c0-0.1,0.2-0.3,0.2-0.3
					C847.8,991.6,848,991.7,848.2,991.9z"/>
				<path class="st8" d="M815.7,1033c-0.1,0.1-0.1,0.2-0.2,0.3C815.6,1033.3,815.7,1033.1,815.7,1033L815.7,1033z"/>
				<path class="st8" d="M755.7,644.6c-0.4-1.6-0.8-2.2-0.7-2.8s0.8-1.1,1.2-1.6c0.4,0.4,1.1,0.8,1.2,1.2
					C757.5,641.9,757,642.4,755.7,644.6z"/>
				<path class="st8" d="M812.6,802.2c3.1,7.3,5.4,12.6,7.5,17.9c0.1,0.3-0.7,0.9-1.1,1.4c-2.7-4.8-5.5-9.6-8.1-14.6
					C810.6,806.4,811.4,805.2,812.6,802.2z"/>
				<path class="st8" d="M538,212.4c0,0.1-0.1,0.2-0.1,0.4c-0.1,0-0.3-0.1-0.4-0.2c0,0,0.1-0.2,0.1-0.3
					C537.7,212.3,537.9,212.4,538,212.4z"/>
				<path class="st8" d="M692.1,388.1c0.2-0.2,0.4-0.4,0.6-0.6c0.2,0.2,0.3,0.4,0.4,0.7c0,0.1-0.2,0.3-0.3,0.3
					S692.4,388.3,692.1,388.1z"/>
				<path class="st8" d="M774.7,390.7c-0.1-0.1-0.2-0.2-0.3-0.2c0.1-0.1,0.2-0.2,0.3-0.2s0.2,0.1,0.3,0.2
					C774.9,390.6,774.8,390.7,774.7,390.7z"/>
			</g>
		</g>
	</g>
</g>
</svg>
