<?xml version="1.0" encoding="utf-8"?>
<!-- Generator: Adobe Illustrator 19.2.1, SVG Export Plug-In . SVG Version: 6.00 Build 0)  -->
<svg version="1.1" id="Layer_1" xmlns="http://www.w3.org/2000/svg" xmlns:xlink="http://www.w3.org/1999/xlink" x="0px" y="0px"
	 viewBox="0 0 512 512" style="enable-background:new 0 0 512 512;" xml:space="preserve">
<style type="text/css">
	.st0{fill:#7F7F7F;}
	.st1{fill:#BFBFBF;}
	.st2{fill:#00FF99;}
	.st3{fill:#FF0066;}
	.st4{fill:#FFFFFF;}
</style>
<path class="st0" d="M0,355.2v-324c0.1-5.7,4.7-10.3,10.4-10.4h491.2c5.7,0.1,10.3,4.7,10.4,10.4v324H0z"/>
<path class="st1" d="M512,355.2v41.6c-0.1,5.7-4.7,10.3-10.4,10.4H10.4c-5.7-0.1-10.3-4.7-10.4-10.4v-41.6H512z"/>
<rect x="146.4" y="480.8" class="st0" width="219.2" height="10.4"/>
<polygon class="st1" points="328.8,480.8 183.2,480.8 193.6,407.2 318.4,407.2 "/>
<rect x="20.8" y="41.6" width="470.4" height="292.8"/>
<polygon class="st0" points="318.4,407.2 193.6,407.2 187.8,448.3 320.3,420.4 "/>
<rect x="64.6" y="107.7" class="st2" width="116.4" height="161.2"/>
<rect x="210.1" y="107.7" class="st3" width="237.4" height="28.5"/>
<g>
	<rect x="210.1" y="163.9" class="st4" width="237.4" height="7.9"/>
	<rect x="210.1" y="188.2" class="st4" width="237.4" height="7.9"/>
	<rect x="210.1" y="212.5" class="st4" width="237.4" height="7.9"/>
	<rect x="210.1" y="236.8" class="st4" width="237.4" height="7.9"/>
	<rect x="210.1" y="261.1" class="st4" width="237.4" height="7.9"/>
</g>
</svg>
